<svg viewBox="0 0 120 80" xmlns="http://www.w3.org/2000/svg">
  <defs>
    <linearGradient id="cnnGradient" x1="0%" y1="0%" x2="100%" y2="100%">
      <stop offset="0%" style="stop-color:#34495e;stop-opacity:1" />
      <stop offset="100%" style="stop-color:#2c3e50;stop-opacity:1" />
    </linearGradient>
  </defs>

  <!-- Background -->
  <rect width="120" height="80" fill="url(#cnnGradient)"/>

  <!-- Input image -->
  <g transform="translate(5,25)">
    <rect x="0" y="0" width="12" height="12" fill="rgba(255,255,255,0.9)" stroke="rgba(0,0,0,0.3)" stroke-width="0.5"/>
    <!-- MNIST-like digit pattern -->
    <rect x="2" y="2" width="2" height="8" fill="#333"/>
    <rect x="4" y="2" width="2" height="2" fill="#333"/>
    <rect x="4" y="6" width="2" height="2" fill="#333"/>
    <rect x="4" y="10" width="2" height="2" fill="#333"/>
    <rect x="6" y="4" width="2" height="4" fill="#333"/>
  </g>

  <!-- Conv1 + Pool1 -->
  <g transform="translate(25,20)">
    <rect x="0" y="0" width="8" height="8" fill="rgba(52,152,219,0.8)" stroke="rgba(0,0,0,0.3)" stroke-width="0.5"/>
    <rect x="0" y="10" width="8" height="8" fill="rgba(52,152,219,0.6)" stroke="rgba(0,0,0,0.3)" stroke-width="0.5"/>
    <rect x="0" y="20" width="8" height="8" fill="rgba(52,152,219,0.4)" stroke="rgba(0,0,0,0.3)" stroke-width="0.5"/>
  </g>

  <!-- Conv2 + Pool2 -->
  <g transform="translate(45,22)">
    <rect x="0" y="0" width="6" height="6" fill="rgba(46,204,113,0.8)" stroke="rgba(0,0,0,0.3)" stroke-width="0.5"/>
    <rect x="0" y="8" width="6" height="6" fill="rgba(46,204,113,0.6)" stroke="rgba(0,0,0,0.3)" stroke-width="0.5"/>
    <rect x="0" y="16" width="6" height="6" fill="rgba(46,204,113,0.4)" stroke="rgba(0,0,0,0.3)" stroke-width="0.5"/>
    <rect x="8" y="0" width="6" height="6" fill="rgba(46,204,113,0.9)" stroke="rgba(0,0,0,0.3)" stroke-width="0.5"/>
    <rect x="8" y="8" width="6" height="6" fill="rgba(46,204,113,0.7)" stroke="rgba(0,0,0,0.3)" stroke-width="0.5"/>
  </g>

  <!-- Fully Connected -->
  <g transform="translate(70,25)">
    <circle cx="3" cy="5" r="2" fill="rgba(231,76,60,0.9)"/>
    <circle cx="3" cy="12" r="2" fill="rgba(231,76,60,0.9)"/>
    <circle cx="3" cy="19" r="2" fill="rgba(231,76,60,0.9)"/>
    <circle cx="3" cy="26" r="2" fill="rgba(231,76,60,0.9)"/>
  </g>

  <!-- Output -->
  <g transform="translate(90,30)">
    <circle cx="3" cy="3" r="1.5" fill="rgba(255,255,255,0.9)"/>
    <circle cx="3" cy="8" r="1.5" fill="rgba(255,255,255,0.7)"/>
    <circle cx="3" cy="13" r="1.5" fill="rgba(255,255,255,0.5)"/>
    <circle cx="3" cy="18" r="1.5" fill="rgba(255,255,255,0.3)"/>
  </g>

  <!-- Arrows -->
  <polygon points="20,31 23,31 22,29 22,33" fill="rgba(255,255,255,0.5)"/>
  <polygon points="38,31 41,31 40,29 40,33" fill="rgba(255,255,255,0.5)"/>
  <polygon points="65,31 68,31 67,29 67,33" fill="rgba(255,255,255,0.5)"/>
  <polygon points="80,31 83,31 82,29 82,33" fill="rgba(255,255,255,0.5)"/>
</svg>