<svg viewBox="0 0 120 80" xmlns="http://www.w3.org/2000/svg">
  <defs>
    <linearGradient id="class2dGradient" x1="0%" y1="0%" x2="100%" y2="100%">
      <stop offset="0%" style="stop-color:#16a085;stop-opacity:1" />
      <stop offset="100%" style="stop-color:#1abc9c;stop-opacity:1" />
    </linearGradient>
  </defs>

  <!-- Background -->
  <rect width="120" height="80" fill="url(#class2dGradient)"/>

  <!-- Decision regions (background colors) -->
  <circle cx="35" cy="30" r="20" fill="rgba(231,76,60,0.3)"/>
  <circle cx="85" cy="50" r="25" fill="rgba(46,204,113,0.3)"/>
  <circle cx="60" cy="60" r="18" fill="rgba(52,152,219,0.3)"/>

  <!-- Data points for different classes -->
  <!-- Class 1 (red) -->
  <circle cx="30" cy="25" r="2.5" fill="#e74c3c"/>
  <circle cx="40" cy="35" r="2.5" fill="#e74c3c"/>
  <circle cx="35" cy="28" r="2.5" fill="#e74c3c"/>

  <!-- Class 2 (green) -->
  <circle cx="80" cy="45" r="2.5" fill="#2ecc71"/>
  <circle cx="90" cy="55" r="2.5" fill="#2ecc71"/>
  <circle cx="85" cy="48" r="2.5" fill="#2ecc71"/>

  <!-- Class 3 (blue) -->
  <circle cx="55" cy="58" r="2.5" fill="#3498db"/>
  <circle cx="65" cy="62" r="2.5" fill="#3498db"/>
  <circle cx="60" cy="55" r="2.5" fill="#3498db"/>

  <!-- Decision boundaries -->
  <path d="M50,15 Q55,25 60,35 Q65,45 70,55"
        stroke="rgba(255,255,255,0.7)"
        stroke-width="1.5"
        fill="none"/>

  <path d="M20,40 Q35,42 50,45 Q65,48 80,50"
        stroke="rgba(255,255,255,0.7)"
        stroke-width="1.5"
        fill="none"/>

  <path d="M45,65 Q55,50 65,35 Q75,20 85,10"
        stroke="rgba(255,255,255,0.7)"
        stroke-width="1.5"
        fill="none"/>
</svg>