<svg viewBox="0 0 120 80" xmlns="http://www.w3.org/2000/svg">
  <defs>
    <linearGradient id="convGradient" x1="0%" y1="0%" x2="100%" y2="100%">
      <stop offset="0%" style="stop-color:#2c3e50;stop-opacity:1" />
      <stop offset="100%" style="stop-color:#34495e;stop-opacity:1" />
    </linearGradient>
  </defs>

  <!-- Background -->
  <rect width="120" height="80" fill="url(#convGradient)"/>

  <!-- Input image (grid) -->
  <g transform="translate(10,20)">
    <rect x="0" y="0" width="20" height="20" fill="rgba(255,255,255,0.8)" stroke="rgba(0,0,0,0.3)" stroke-width="0.5"/>
    <rect x="0" y="0" width="4" height="4" fill="#3498db"/>
    <rect x="4" y="0" width="4" height="4" fill="#e74c3c"/>
    <rect x="8" y="0" width="4" height="4" fill="#2ecc71"/>
    <rect x="12" y="0" width="4" height="4" fill="#f39c12"/>
    <rect x="16" y="0" width="4" height="4" fill="#9b59b6"/>

    <rect x="0" y="4" width="4" height="4" fill="#e67e22"/>
    <rect x="4" y="4" width="4" height="4" fill="#1abc9c"/>
    <rect x="8" y="4" width="4" height="4" fill="#e74c3c"/>
    <rect x="12" y="4" width="4" height="4" fill="#3498db"/>
    <rect x="16" y="4" width="4" height="4" fill="#2ecc71"/>

  </g>

  <!-- Convolution arrow -->
  <polygon points="40,30 48,30 46,28 46,32" fill="rgba(255,255,255,0.7)"/>

  <!-- Filter kernel -->
  <g transform="translate(50,25)">
    <rect x="0" y="0" width="9" height="9" fill="rgba(255,255,0,0.8)" stroke="rgba(0,0,0,0.5)" stroke-width="0.5"/>
    <rect x="0" y="0" width="3" height="3" fill="#ff6b6b"/>
    <rect x="3" y="0" width="3" height="3" fill="#4ecdc4"/>
    <rect x="6" y="0" width="3" height="3" fill="#45b7d1"/>
  </g>

  <!-- Convolution arrow -->
  <polygon points="68,30 76,30 74,28 74,32" fill="rgba(255,255,255,0.7)"/>

  <!-- Feature map output -->
  <g transform="translate(80,22)">
    <rect x="0" y="0" width="16" height="16" fill="rgba(46,204,113,0.8)" stroke="rgba(0,0,0,0.3)" stroke-width="0.5"/>
    <rect x="2" y="2" width="3" height="3" fill="rgba(255,255,255,0.9)"/>
    <rect x="6" y="2" width="3" height="3" fill="rgba(255,255,255,0.7)"/>
    <rect x="10" y="2" width="3" height="3" fill="rgba(255,255,255,0.5)"/>
    <rect x="2" y="6" width="3" height="3" fill="rgba(255,255,255,0.6)"/>
    <rect x="6" y="6" width="3" height="3" fill="rgba(255,255,255,0.9)"/>
    <rect x="10" y="6" width="3" height="3" fill="rgba(255,255,255,0.4)"/>
  </g>

  <!-- Pooling indicator -->
  <g transform="translate(80,45)">
    <rect x="0" y="0" width="8" height="8" fill="rgba(231,76,60,0.8)" stroke="rgba(0,0,0,0.3)" stroke-width="0.5"/>
    <rect x="2" y="2" width="4" height="4" fill="rgba(255,255,255,0.9)"/>
  </g>
</svg>