<svg viewBox="0 0 120 80" xmlns="http://www.w3.org/2000/svg">
  <defs>
    <linearGradient id="multiLinearGradient" x1="0%" y1="0%" x2="100%" y2="100%">
      <stop offset="0%" style="stop-color:#e67e22;stop-opacity:1" />
      <stop offset="100%" style="stop-color:#d35400;stop-opacity:1" />
    </linearGradient>
  </defs>

  <!-- Background -->
  <rect width="120" height="80" fill="url(#multiLinearGradient)"/>

  <!-- Feature toggles -->
  <g transform="translate(10,10)">
    <rect x="0" y="0" width="6" height="6" fill="#2ecc71" rx="1"/>
    <text x="8" y="5" font-family="Arial, sans-serif" font-size="6" fill="white">Area</text>

    <rect x="0" y="10" width="6" height="6" fill="#3498db" rx="1"/>
    <text x="8" y="15" font-family="Arial, sans-serif" font-size="6" fill="white">Rooms</text>

    <rect x="0" y="20" width="6" height="6" fill="#e74c3c" rx="1"/>
    <text x="8" y="25" font-family="Arial, sans-serif" font-size="6" fill="white">Age</text>
  </g>

  <!-- 3D-style surface visualization -->
  <g transform="translate(50,20)">
    <!-- Grid lines suggesting 3D surface -->
    <path d="M0,20 Q20,15 40,25 Q55,30 60,40" stroke="rgba(255,255,255,0.3)" stroke-width="1" fill="none"/>
    <path d="M0,30 Q20,25 40,35 Q55,40 60,50" stroke="rgba(255,255,255,0.3)" stroke-width="1" fill="none"/>
    <path d="M0,40 Q20,35 40,45 Q55,50 60,60" stroke="rgba(255,255,255,0.3)" stroke-width="1" fill="none"/>

    <!-- Vertical grid lines -->
    <line x1="10" y1="15" x2="10" y2="45" stroke="rgba(255,255,255,0.2)" stroke-width="1"/>
    <line x1="30" y1="20" x2="30" y2="50" stroke="rgba(255,255,255,0.2)" stroke-width="1"/>
    <line x1="50" y1="25" x2="50" y2="55" stroke="rgba(255,255,255,0.2)" stroke-width="1"/>

    <!-- Data points on surface -->
    <circle cx="15" cy="25" r="2" fill="rgba(255,255,255,0.8)"/>
    <circle cx="35" cy="30" r="2" fill="rgba(255,255,255,0.8)"/>
    <circle cx="55" cy="35" r="2" fill="rgba(255,255,255,0.8)"/>
  </g>
</svg>