<svg width="400" height="176" xmlns="http://www.w3.org/2000/svg">
  <path d="M77.288 60.737c0 .852-.781 1.68-2.141 2.39.378-1.81-3.94-2.366-3.94-3.703 0-1.148 1.715-1.763 3.017-1.976.852 1.089 3.064 1.893 3.064 3.29m-4.448 7.63-.758.272s-1.254-1.254-1.526-1.538l-.118 1.976-1.006.189.225-3.786.722-.118 1.561 1.561c.012-.378.107-1.928.107-1.928l1.017-.272zm-4.271.615c-.379.355-.864.544-1.443.58-.556 0-1.03-.166-1.396-.497-.379-.343-.568-.793-.568-1.325 0-.544.189-1.006.568-1.384.366-.367.851-.556 1.42-.58.555-.012 1.04.154 1.43.497.38.343.58.804.58 1.337 0 .544-.2 1.005-.591 1.372m-3.715.65-1.03.024v-1.964a272.65 272.65 0 0 1-.863 1.018l-.852-1.018v1.952l-1.017-.023v-3.68l.852.024s.887 1.077 1.03 1.254c.141-.177 1.005-1.242 1.005-1.242l.875-.024zm-5.75-2.85a88.403 88.403 0 0 1-1.064-.13v2.744l-1.03-.142v-2.756c-.283-.048-.733-.119-1.029-.166v-.982c.9.154 2.118.331 3.124.45zm-5.654 1.55-.19-3.633c.556.166 1.775.485 2.402.604l.024.982c-.307-.06-.91-.19-1.349-.296 0 .047.013.225.013.32l1.254.307.035 1.005s-1.017-.248-1.23-.307c0 .023.012.284.024.39.343.107.875.249 1.313.331l.047 1.018c-.863-.178-1.774-.462-2.342-.722m-2.248-5.205c-1.372-.71-2.141-1.538-2.141-2.39 0-1.396 2.2-2.2 3.052-3.289 1.301.225 3.029.828 3.029 1.976 0 1.337-4.318 1.893-3.94 3.703m-3.596-5.371c-1.065.461-1.704 0-2.047-.745l-.84-1.905.9-.473.851 1.916c.19.402.39.533.769.343.438-.2.438-.402.272-.769l-.875-2.01.994-.332.828 1.952c.32.793.248 1.538-.852 2.023m-4.058 2.295-1.87-3.017 1.965-1.277.497.804-1.124.757c.059.083.118.19.177.284l1.077-.733.508.804-1.088.734c.06.094.142.212.19.307l1.17-.78.51.804zm-1.976 1.313-1.892-3.005.828-.556 1.88 3.017zm-2.732 1.62-1.041.569L36 60.536l1.1-.592c.39-.212.722-.319 1.03-.319.307-.012.615.071.899.237.272.153.52.366.674.662.402.757.45 1.763-.863 2.46m38.259-9.64 1.372.33c.864.225 1.657 1.018 1.195 2.177-.544 1.349-1.561 1.42-2.567 1.195l-1.195-.296zm5.075 2.093c.166.095.39.272.544.52.178.308.166.663-.035 1.006a.899.899 0 0 1-.556.45c-.083.023-.166.023-.272.023.035.154.06.32.071.52.047.746.142 1.563.142 1.574-.154-.106-1.017-.65-1.088-.698l-.083-1.04c-.035-.367-.047-.521-.166-.592-.094.154-.65 1.1-.65 1.1l-.888-.461 1.787-3.1a39.6 39.6 0 0 1 1.195.698m1.632 1.74a1.959 1.959 0 0 1 1.42.224c.473.272.769.65.899 1.124.047.154.07.307.07.461 0 .32-.094.627-.271.911a1.765 1.765 0 0 1-1.16.828c-.485.095-.97.012-1.443-.248-.461-.26-.757-.639-.875-1.1-.142-.474-.071-.923.2-1.36.273-.439.663-.734 1.16-.84m4.342 2.093-1.87 3.064-.875-.532 1.87-3.052zm3.206 1.763-.461.828c-.249-.107-.734-.32-1.077-.497-.308.473-1.171 1.846-1.337 2.106l-.923-.402c.012-.012 1.041-1.621 1.373-2.165-.284-.166-.698-.403-.911-.533l.461-.84c.745.462 2.248 1.23 2.875 1.503m-.78 3.407c1.845 0 3.49-2.342 5.796-3.36-5.832 1.692-13.877-8.186-19.354-8.186-1.538 0-3.325.591-4.2 2.709-.923 2.247-1.952 2.981-1.952 3.987 0 .863.792 1.538 2.117 2.235.864.462 1.751.71 1.704 1.527-2.496 1.135-6.613 1.928-11.511 1.928-4.898 0-9.015-.793-11.523-1.928-.047-.817.852-1.065 1.704-1.527 1.337-.697 2.117-1.372 2.117-2.235 0-1.006-1.017-1.74-1.94-3.987-.875-2.118-2.662-2.698-4.2-2.698-5.477 0-13.522 9.879-19.354 8.175 2.307 1.018 3.951 3.36 5.797 3.36 4.72 0 10.198-7.098 15.32-7.098.071 0 .142 0 .225.012-1.195 1.478-2.863 1.786-2.863 3.288 0 1.042.91 1.68 1.538 3.076.39.888.461 1.503.793 2.745.295 1.1 1.064 3.892 12.386 3.892s12.079-2.792 12.375-3.892c.33-1.242.414-1.857.804-2.745.627-1.396 1.538-2.034 1.538-3.076 0-1.502-1.68-1.81-2.875-3.288.083-.012.166-.012.225-.012 5.134 0 10.6 7.098 15.332 7.098m-22.751 2.59a.84.84 0 0 0-.651-.236.984.984 0 0 0-.686.284.83.83 0 0 0-.26.639c0 .248.082.45.248.603.19.166.402.237.674.225.272-.012.497-.095.675-.272a.884.884 0 0 0 .272-.65.738.738 0 0 0-.272-.592m16.006-7.359c.225.13.45.166.686.107a.852.852 0 0 0 .544-.402.767.767 0 0 0 .107-.616.875.875 0 0 0-.426-.52c-.236-.13-.45-.178-.686-.118-.237.047-.402.189-.544.402a.788.788 0 0 0-.095.627c.047.225.19.39.414.52m-6.412-3.549c.639.166 1.041.06 1.278-.556.189-.45.047-.816-.698-1.017h.012c-.012 0-.047-.012-.249-.06-.059.166-.544 1.539-.567 1.586l.224.047m4.247.485a.237.237 0 0 0 .119-.094c.012-.036.024-.071.024-.107 0-.07-.048-.142-.142-.201a3.406 3.406 0 0 0-.272-.166c0 .012-.142.26-.213.379.094.06.236.13.236.13.083.06.166.071.249.06M37.55 60.783l-.19.107c.071.118.722 1.207.817 1.372l.2-.118c.71-.379.628-.876.438-1.16-.366-.58-.828-.414-1.265-.2m39.69-22.478c0 .355-.106.639-.319.84a1.07 1.07 0 0 1-.745.272c-.284-.012-.533-.107-.698-.296-.201-.201-.308-.509-.308-.864v-.165c-.118 0-1.147-.024-1.147-.024l.012-.946 3.23.059zm-.496 3.868-.888-.165.201-1.112-.236-.036-.201 1.065-.887-.166.189-1.065-.26-.047-.201 1.148-.9-.166.379-2.082 3.182.58zm-.51 1.55-1.998.698 1.478.603-.343.852-2.993-1.218.272-.675 1.976-.686-1.455-.591.331-.852 3.005 1.207zm-1.916 3.88c-.153.225-.508.462-.757.556l-.899-.615c.947-.296 1.006-.568.958-.615-.035-.035-.189.047-.378.142-.331.166-.84.426-1.372.071a1.124 1.124 0 0 1-.438-.639 1.033 1.033 0 0 1 .177-.78c.178-.273.533-.51.9-.64l.898.604-.153.035c-.438.107-.781.355-.876.474-.035.047-.059.094-.047.13 0 0 0 .012.012.023.083.048.32-.059.497-.142.367-.165.816-.366 1.266-.059a.96.96 0 0 1 .414.604c.012.059.024.13.024.189 0 .225-.083.45-.225.662m-2.626 2.934-.639-.639.78-.804-.165-.166-.757.77-.65-.628.757-.78-.19-.19-.828.805-.65-.64 1.502-1.466 2.295 2.26zm-8.116-13.013v-11.57a8.504 8.504 0 0 1 3.502.91c1.207.592 2.283 1.444 3.206 2.532.935 1.089 1.656 2.355 2.165 3.774.509 1.373.77 2.851.793 4.354zm-.402-12.268c-.686.012-1.396-.39-1.42-1.302v-1.928l.947-.024v1.858c.012.272.047.296.083.343a.482.482 0 0 0 .378.13c.19 0 .343-.047.426-.142.047-.035.083-.118.083-.378l-.012-1.834.946.012v1.904c0 .379-.107.71-.331.947-.249.26-.615.402-1.1.414M53.107 37.526c.024-1.503.284-2.981.793-4.354.508-1.42 1.23-2.685 2.165-3.774.922-1.088 1.999-1.94 3.206-2.531a8.625 8.625 0 0 1 3.726-.923v11.582zm-.024-5.832a1.59 1.59 0 0 1-1.207-.119 1.546 1.546 0 0 1-.757-.923 1.645 1.645 0 0 1 .13-1.265c.213-.414.568-.71.97-.84a1.57 1.57 0 0 1 1.195.13c.379.19.65.52.769.91.047.155.07.308.07.462 0 .272-.07.556-.212.816a1.683 1.683 0 0 1-.958.829m.047-5.064 2.425 1.905-.568.733-2.425-1.916zm2.366-2.295.603.65-.65.592c.082.095 1.502 1.633 1.502 1.633l-.674.615-1.503-1.62-.638.59-.604-.638zm6.246.438-.414.875c-.686.166-1.455-.012-1.62-.059a1.64 1.64 0 0 1-1.751-1.053c-.154-.438-.142-.863.035-1.242.19-.414.556-.733 1.041-.91.9-.332 1.822.082 2.153.97.06.177.107.366.107.555 0 .308-.107.627-.272.9.142-.013.426.047.722-.036m4.755-2.485-.638 3.254-.923-.19.639-3.253zm-11.31-.733c0-1.881 5.289-2.047 7.986-2.047 2.686 0 7.986.166 7.986 2.047 0 .52-.343.958-1.1 1.408-1.326-.876-3.597-1.846-6.886-1.846-3.3 0-5.572.97-6.885 1.846-.77-.45-1.1-.888-1.1-1.408m15.935 2.875.568.437-1.952 2.639-.78-.545.993-1.3-.958.248-.154-1.018-.923 1.325-.828-.45 1.881-2.709.627.332.213 1.36zm2.212 2.106.403.496-1.716 3.313-.615-.852.308-.58-.616-.804-.556.177-.757-.721zm4.65 10.032c-.296-.225-.675-.568-.923-1.077-.343-.118-1.29-.461-1.704-.603l-.224-.083-1.325.355-.249-.911 1.337-.355c.024-.024.071-.095.119-.154.189-.26.556-.733.71-.923a34.24 34.24 0 0 0-.852-1.514c-.201-.331-.308-.662-.308-.934l-1.218.638c.059.107.532 1.089.532 1.089l-.816.402-.947-1.94 2.899-1.42.13.249c.07-.107.154-.213.213-.332.094-.142.189-.26.284-.355a17.037 17.037 0 0 0-1.952-2.697 15.567 15.567 0 0 0-3.005-2.603c.591-.378 1.183-.934 1.183-1.845 0-.544-.213-.982-.604-1.325.615-1.988 1.716-4.365 2.662-5.418l-1.987-.84c.52.78.556 1.703.437 2.247-.52-.366-.958-.851-1.112-1.502-.094.603-.426 1.573-.721 2.153.567-.272 1.029-.39 1.62-.142-.343.45-1.206 1.148-2.508.828-.71-.165-1.407-.544-1.384-1.088.024-.331.26-.722.71-.674.426.047.45.698.32.993.567-.32 1.159-1.987.271-2.236-.698-.189-1.348.77-1.573 1.503-.13-.887-.509-1.74-1.207-1.692-.91.071-.627 1.751-.296 2.177.048-.58.379-.9.64-.887.248.023.579.2.52.733-.06.544-.828.876-1.704.876-.84 0-2.319-.26-2.46-1.882.544.095 1.395.51 1.762 1.053a11.413 11.413 0 0 1 0-2.697c-.438.639-1.207.97-1.739 1.053.154-.686.757-1.431 1.455-1.857h-3.62c.698.426 1.29 1.159 1.443 1.857-.52-.095-1.265-.426-1.715-1.053.118 1.017.118 1.715 0 2.697.367-.532 1.195-.946 1.75-1.053-.141 1.621-1.62 1.882-2.46 1.882-.875 0-1.644-.332-1.703-.876-.06-.532.272-.71.508-.733.272-.012.592.307.651.887.32-.426.615-2.106-.296-2.177-.71-.047-1.076.805-1.207 1.692-.236-.734-.875-1.692-1.573-1.503-.887.249-.296 1.917.272 2.236-.13-.295-.107-.946.32-.993.449-.048.686.343.71.674.023.544-.675.923-1.385 1.088-1.301.308-2.153-.366-2.496-.828.591-.248 1.053-.13 1.632.142-.295-.58-.627-1.55-.733-2.153-.142.65-.603 1.148-1.124 1.514-.118-.532-.083-1.467.426-2.26l-1.988.84c.959 1.054 2.07 3.443 2.686 5.443-.379.343-.592.769-.592 1.3 0 .912.592 1.468 1.183 1.846a15.567 15.567 0 0 0-3.004 2.603c-1.36 1.526-2.426 3.313-3.183 5.288-.035.107-.059.201-.106.296.224.225.45.461.662.698.012-.024.024-.06.036-.083.094-.248.39-.556.615-.698l.994.39c-.415.296-.911.699-.805.805.047.036.26-.142.355-.213.296-.236.733-.603 1.337-.367.248.107.45.296.556.533.106.248.106.532 0 .792-.119.308-.414.616-.745.829l-.9-.367c.367-.213.734-.627.781-.745.036-.083.036-.154 0-.166-.07-.047-.272.106-.45.248-.2.142-.425.308-.686.379.426.603.71 1.171.722 1.633.036.887.225 1.254.698 1.857.722.91-.012.84.615 1.964-.024-.32-.047-.64-.047-.97h9.89v10.8c-.402.013-.84.06-1.183.474 1.148.461 2.295.875 3.396 1.218.094-.71.283-1.064.638-1.49 0 0-1.49-.154-2.271-.19V38.107h9.665a13.25 13.25 0 0 1-.792 4.318c-.509 1.42-1.23 2.685-2.165 3.762a10.228 10.228 0 0 1-3.206 2.531c-.284.154-.485.604-.675 1.006-.13.32-.248.627-.295 1.065.45.142.544.225.97.331 3.395.852 4.282.686 4.472.544a15.585 15.585 0 0 0 2.14-2.01c1.361-1.539 2.426-3.337 3.171-5.325.77-2.07 1.16-4.27 1.16-6.53 0-.402-.012-.816-.036-1.23M59.91 23.258a.727.727 0 0 0-.568-.011c-.225.083-.378.2-.461.378a.83.83 0 0 0-.024.58c.059.166.307.662.993.414a.692.692 0 0 0 .414-.379.642.642 0 0 0 .071-.295.723.723 0 0 0-.047-.26.748.748 0 0 0-.379-.426M76.211 38.46c.06 0 .119 0 .13-.166v-.178h-.26l-.012.154c0 .083.024.13.047.154.013.012.036.036.095.036m.272-4.153-.295-.591c-.06.07-.119.153-.19.248-.024.047-.059.095-.094.142.059.024.13.047.201.07.118.048.26.096.379.131m-4.177-6.542-.343.095.178.236zm-19.33 1.727c-.356-.19-.746-.059-.935.308a.713.713 0 0 0-.071.556c.059.165.177.307.343.402a.738.738 0 0 0 .52.06c.19-.06.344-.19.426-.368a.768.768 0 0 0 .083-.343.688.688 0 0 0-.367-.615m-.461 14.078v-.012a.962.962 0 0 0-.06-.307c-.165-.414-.567-.592-.957-.438-.403.154-.568.556-.414.97.07.201.224.355.39.438a.783.783 0 0 0 .568 0c.284-.118.461-.355.473-.65m11.913 10.516a.86.86 0 0 1-.863-.863.86.86 0 0 1 .863-.864c.473 0 .864.39.864.864 0 .473-.39.863-.864.863m-4.152-1.277a.95.95 0 0 1-.947-.947.94.94 0 0 1 .947-.934.94.94 0 0 1 .946.934.95.95 0 0 1-.946.947m-1.42-4.2-.236-.19c-.426-.319-.793-.307-1.183.024a5.463 5.463 0 0 0-.51.533l-.236.272.166.13c.45.367.52.757.39.994a.358.358 0 0 1-.236.177c-.225.06-.544-.012-.864-.213l-.177-.094-.107.165c-.024.036-.047.083-.083.119-.035.059-.07.118-.118.189-.19.331-.284.591-.284.804 0 .06.012.119.024.166.071.248.26.367.45.461l.107.06c.2.13.485.307.698.425a1.252 1.252 0 0 1-1.207.048c-.603-.296-.994-.982-.994-1.325 0-.533.237-1.183.674-1.87l.06-.106-.06-.106a3.642 3.642 0 0 1-.307-.604c.225.024.45.071.674.118l.119.036.082-.083c.26-.296 1.195-1.23 2.059-1.23.39 0 .78.19 1.088.544.213.248.355.556.402.84-.118-.083-.26-.19-.39-.284m-5.974.13-.544-.769s.851-.603.946-.674c-.06-.083-.473-.674-.532-.757-.095.059-.947.662-.947.662l-.556-.769 2.65-1.857.544.769s-.851.603-.946.674c.059.083.461.663.532.757.095-.07.947-.674.947-.674l.544.78zm-2.65-4.626c-.178-.46-.178-.922 0-1.336.177-.39.497-.698.91-.864a1.591 1.591 0 0 1 1.255.024c.414.189.733.532.91.993.083.213.13.438.13.663 0 .225-.046.45-.141.65-.178.403-.497.71-.911.864a1.614 1.614 0 0 1-1.242-.012 1.771 1.771 0 0 1-.911-.982m16.716 7.809c-2.212-.545-4.85-1.503-7.311-2.615l.012-.035c.059-.485-.118-1.041-.497-1.491-.39-.426-.887-.674-1.396-.674-.236 0-.461.047-.674.13-.355-.32-.698-.675-1.018-1.053-.934-1.077-1.656-2.343-2.165-3.762a12.876 12.876 0 0 1-.638-2.496c-.119.71-.97 1.55-2.355 1.561.025-.154-.024-.367-.142-.402-.367.402-.84.804-2.094.367.19.982.462 1.94.805 2.874.757 1.988 1.822 3.786 3.182 5.324.45.509.923.982 1.42 1.42-.012.094-.024.19-.024.284 0 .52.508 1.337 1.218 1.691.592.284 1.23.202 1.81-.212 1.065.58 2.449 1.112 3.916 1.526 1.656.461 3.253.71 4.507.71 1.077 0 2.497-.51 3.904-1.385a10.485 10.485 0 0 0 1.48-1.124c.046-.047.106-.094.153-.142-1.1.154-2.745-.153-4.093-.496M64.357 3.679c-.497-.39-.887-.958-.958-1.55.58.107 1.219.521 1.597 1.018V.722c-.378.497-1.03.91-1.597 1.017.07-.591.426-1.124.923-1.739h-2.343c.497.615.852 1.148.923 1.74-.568-.107-1.218-.521-1.597-1.018v2.425c.379-.497 1.017-.911 1.597-1.018-.07.592-.461 1.16-.958 1.55zm-3.36 2.934a2.198 2.198 0 0 0 2.154 1.716 2.208 2.208 0 0 0 2.153-1.716zm2.615-.863h1.715a2.225 2.225 0 0 0-1.715-1.787Zm-.911 0V3.963a2.193 2.193 0 0 0-1.727 1.787Zm1.644 3.324c-.236.106-.508.19-.78.237v3.004h.78zm-2.39 3.241h.781V9.311a2.732 2.732 0 0 1-.78-.237Zm2.556-3.797c0 .39.32.71.71.71a.71.71 0 0 0 .698-.71.707.707 0 0 0-.698-.698.71.71 0 0 0-.71.698m2.342-.06c.39 0 .698-.319.698-.71a.7.7 0 0 0-.698-.697.707.707 0 0 0-.698.698c0 .39.32.71.698.71m1.74-.509a.7.7 0 0 0 .697-.698.692.692 0 0 0-.697-.698.7.7 0 0 0-.698.698c0 .379.319.698.698.698m4.956 1.573a.7.7 0 0 0 .698-.698c0-.39-.307-.71-.698-.71-.39 0-.71.32-.71.71 0 .379.32.698.71.698m-1.372-1.206a.7.7 0 0 0 .698-.698.71.71 0 0 0-.698-.71c-.39 0-.698.32-.698.71 0 .39.308.698.698.698m-1.75-.533c.39 0 .709-.319.709-.71a.71.71 0 0 0-.71-.697.707.707 0 0 0-.698.698c0 .39.32.71.698.71m3.786 5.347c-.39 0-.71.32-.71.71 0 .378.32.698.71.698.378 0 .698-.32.698-.698a.71.71 0 0 0-.698-.71m.343-1.704c-.39 0-.71.32-.71.71 0 .379.32.698.71.698a.7.7 0 0 0 .698-.698c0-.39-.308-.71-.698-.71m-.946-1.005c0 .39.319.71.71.71.39 0 .697-.32.697-.71a.692.692 0 0 0-.698-.698c-.39 0-.71.307-.71.698M61.08 9.228c.39 0 .71-.32.71-.71 0-.39-.32-.698-.71-.698a.692.692 0 0 0-.698.698c0 .39.308.71.698.71m-1.632-.77a.71.71 0 0 0 .698-.71.707.707 0 0 0-.698-.697.71.71 0 0 0-.71.698c0 .39.32.71.71.71m-1.74-.509c.38 0 .699-.32.699-.698a.7.7 0 0 0-.698-.698c-.39 0-.71.308-.71.698 0 .379.32.698.71.698m-4.957 1.573a.7.7 0 0 0 .698-.698c0-.39-.308-.71-.698-.71-.39 0-.71.32-.71.71 0 .379.32.698.71.698m1.372-1.206c.39 0 .698-.308.698-.698 0-.39-.308-.71-.698-.71-.39 0-.71.32-.71.71 0 .39.32.698.71.698m1.75-.533c.391 0 .699-.319.699-.71a.7.7 0 0 0-.698-.697.71.71 0 0 0-.71.698c0 .39.32.71.71.71m-3.088 6.057c0-.39-.307-.71-.698-.71a.71.71 0 0 0-.698.71c0 .378.32.698.698.698a.7.7 0 0 0 .698-.698m-.343-1.704c0-.39-.308-.71-.698-.71-.39 0-.698.32-.698.71a.7.7 0 0 0 .698.698.7.7 0 0 0 .698-.698m-.461-1.006c.39 0 .698-.319.698-.71a.7.7 0 0 0-.698-.697.71.71 0 0 0-.71.698c0 .39.32.71.71.71m16.373.449c.402.769.757 1.218.698 1.822-.047.591-.674 1.017-.982 1.62-.26-.697-.71-1.23-.663-1.774.06-.544.817-1.278.947-1.668m-10.387 0c-.402.769-.757 1.218-.71 1.822.06.591.686 1.017.982 1.62.272-.697.722-1.23.662-1.774-.047-.544-.804-1.278-.934-1.668M66.32 60.89c-.154-.296-.39-.461-.591-.461-.9 0-.556 2.377-1.621 2.377-.473 0-.722-.295-.722-.638 0-.332.225-.438.225-.698 0-.272-.201-.367-.438-.367-.236 0-.45.094-.45.367 0 .26.237.366.237.698 0 .343-.248.638-.722.638-1.076 0-.721-2.377-1.62-2.377-.201 0-.438.165-.592.46-.177-.33-.284-.673-.284-.934 0-.426.332-1.04 1.041-1.04 1.207 0 .923 1.644 1.503 1.644.248 0 .438-.142.438-.403 0-.46-.84-.91-.84-1.573 0-.674.615-1.242 1.29-1.775.674.533 1.289 1.1 1.289 1.775 0 .663-.852 1.112-.852 1.573 0 .26.19.403.45.403.58 0 .295-1.645 1.502-1.645.71 0 1.041.615 1.041 1.041 0 .26-.107.604-.284.935m-3.147 3.336a.593.593 0 0 1-.591-.591c0-.32.272-.58.591-.58.32 0 .592.26.592.58a.593.593 0 0 1-.592.591m2.39-5.773c-.154 0-.307.023-.45.059v-2.567c-1.147-.036-2.508-.26-3.868-.615v3.194a1.452 1.452 0 0 0-.461-.071c-.935 0-1.503.78-1.503 1.502 0 .686.402 1.313.745 1.704.178-.402.332-.745.556-.745.474 0 .26 2.295 1.61 2.354a1.01 1.01 0 0 0-.071.367c0 .591.473 1.064 1.052 1.064.58 0 1.053-.473 1.053-1.064 0-.119-.024-.249-.07-.367 1.348-.06 1.123-2.354 1.585-2.354.224 0 .378.319.58.745.343-.39.745-1.018.745-1.704 0-.721-.568-1.502-1.503-1.502m30.368-17.225c-.354.509-.97.686-1.36.402-.402-.284-.426-.91-.07-1.42.354-.496.957-.674 1.36-.402.402.284.425.923.07 1.42m-2.567 4.058c-.355.497-.97.686-1.36.402-.402-.284-.438-.923-.083-1.42.355-.497.97-.686 1.372-.402.39.272.426.911.071 1.42M84.47 23.08l.024-.047c.296-.935.876-2.792.876-2.816l.024-.07 1.218.472-.165.06c-.225.094-.52.295-.84.591.213.06.52.035.733-.095l.178-.118-.533 1.313-.059-.118c-.082-.13-.32-.438-.544-.52a.963.963 0 0 0-.035.26c0 .485.343.71.674.875.58.296.935.331 1.077.107a.33.33 0 0 0 .047-.154.41.41 0 0 0-.107-.26c-.106-.119-.307-.202-.568-.095l-.082.035-.013-.094c-.035-.343.083-.556.178-.663a.625.625 0 0 1 .473-.2c.201 0 .379.117.497.319.07-.734.485-1.266 1.171-1.48l.06-.011.024.06c.082.236.118.449.118.662 0 .414-.166.792-.532 1.194.295-.059.556.024.674.202a.602.602 0 0 1 .094.508c-.035.142-.142.355-.45.52l-.082.036-.012-.082c-.047-.225-.19-.38-.39-.415-.178-.011-.332.06-.403.19-.142.284.06.591.627.899.675.378 1.113.059 1.361-.32a1.206 1.206 0 0 0-.78.213l-.214.13.864-1.62.035.189c.024.083.083.367.332.615.035-.142.094-.355.094-.591 0-.154-.024-.308-.094-.462l-.083-.189 1.774 1.03-.2.011c-.32.036-.616.213-.9.544.32.083.604 0 .686-.035l.19-.071-.982 1.561.012-.248v-.047c0-.32-.095-.58-.213-.722-.071.154-.13.331-.13.509 0 .284.13.58.544.828.544.331.91.355 1.088.083a.382.382 0 0 0-.047-.426c-.118-.166-.331-.213-.544-.142l-.083.035v-.094c-.012-.343.107-.545.213-.651a.65.65 0 0 1 .485-.178c.248.024.426.237.52.486.249-.758.663-1.136 1.408-1.278l.06-.012.012.06c.035.141.047.271.047.401 0 .533-.26.994-.746 1.35.237 0 .438.094.533.271.059.107.094.213.094.32 0 .059-.012.13-.035.189-.047.142-.166.343-.485.485l-.083.035-.012-.082c-.035-.284-.213-.414-.367-.45a.363.363 0 0 0-.39.154c-.13.236.083.52.627.875.367.237.804.45 1.313 0-.19-.165-.556-.213-.722-.213h-.142l.876-1.112-.012.213v.036c0 .236.13.497.284.639a3.49 3.49 0 0 0 .106-.781c0-.095-.012-.166-.024-.237l-.024-.165 1.017.816-.047.047c-.012.012-1.349 1.443-2 2.165l-.035.047zm10.754 12.103c.012-.13.047-.332.213-.486v-.011a.692.692 0 0 1 .508-.166c.308 0 .64.166.888.426s.39.615.378.923a.745.745 0 0 1-.2.485l-.013.012a.657.657 0 0 1-.509.165c-.307 0-.639-.165-.875-.426-.249-.272-.402-.603-.39-.922m3.903 17.958c.071-.296.284-.603.592-.793.296-.2.65-.284.958-.224.142.035.331.106.45.295h.012c.118.19.106.39.083.533-.06.296-.284.591-.58.792-.532.355-1.171.32-1.42-.07a.7.7 0 0 1-.094-.533M80.553 26.098a1.13 1.13 0 0 1-.331.769.704.704 0 0 1-.426.165c-.355-.035-.639-.45-.639-.934v-.083c.012-.308.13-.592.331-.757a.567.567 0 0 1 .426-.166.59.59 0 0 1 .39.201c.178.201.273.497.249.805m5.75-11.807c.307-.58 0-1.467 1.064-1.467.52 0 .982.52 1.621.722-1.03.083-1.952.32-2.686.745m16.74 14.776c.71 1.94 2.118 2.65 3.195 2.142-2.402-.273-.462-4.39-3.55-4.39-.177 0-.343.012-.508.048-.52-.556-1.124-.781-2.011-.781-1.313 0-3.561 1.266-3.561 3.88 0 5.62 6.53 6.117 6.53 11.085 0 1.456-1.1 2.355-2.33 2.355-1.089 0-1.976-1.23-2.899-3.16-.45-.922-1.396-2.176-2.401-3.489.295.213.638.331.97.343.355 0 .674-.106.91-.331.237-.225.367-.533.38-.887v-.048c0-.45-.19-.899-.533-1.266-.355-.378-.817-.591-1.278-.603a1.253 1.253 0 0 0-.899.32 1.284 1.284 0 0 0-.39.887v.059c0 .19.035.378.106.568-1.408-1.834-2.72-3.644-2.72-4.626 0-.875.603-1.633 1.348-2.555.035.011.26.142.26.142l.201-.213c.26-.296.805-.888 1.928-2.106l.071-.071h-.012l.284-.284-.71-.556c.19-.426.343-.887.473-1.384.213.899.675 1.479 1.314 1.301-.414-.934.437-2.188-.13-4.472.544.876 1.313 1.349 1.857 1.183-1.444-1.29.437-3.076-1.455-5.844.627.201 1.029.083 1.3-.225-1.714-.236-.934-2.437-3.95-3.218.757-.13 1.194-.567 1.076-.97-.793.58-1.49-1.064-4.105-1.017-.166-.982-1.065-2.011-2.094-2.508.19.757.012 1.431-.19 2.011l-8.517-8.364c-.249-.237-.379-.296-.45-.201-.07.083-.07.236.095.402l7.311 9.18c-.544.178-1.088.415-1.656.627-.355.13-.64.497-.64.947-1.348.674-2.543 1.502-3.134 2.047-.45.414-.816.508-.414 1.431.154.355-.32 1.219.733.58.698-.414 2.272-1.278 2.508-.734.13.284-.65.65-1.183.852-.544.213-1.112.615-1.029.828.083.201.509-.012.532.201.025.249.201.462.414.462.213 0 .485-.45.651-.296.178.142-.083 1.147-.248 1.396.828-.095 1.36-.887 1.384-1.503.012-.615.19-.769.32-.851.118-.083.271.662.106 1.1.438-.095.887-.663.828-1.727.225-.178.438-.308.615-.308.272 0 .828.757 1.61.757 1.442 0 2.259-1.171 2.342-1.715.07-.45.035-.876-.202-1.207.51.414.675 1.065.675 1.562 0 2.046-3.62 3.016-5.11 4.424l-.167.166-1.691-.663-.119.379c-.012.012-.024.083-.094.32-.178.58-.556 1.798-.781 2.496l-.095.284.154.082c-1.005 1.337-1.822 2.84-2.01 4.39a15.893 15.893 0 0 0-1.231-1.136 1.53 1.53 0 0 0 .082-.474 1.621 1.621 0 0 0-.378-1.194 1.136 1.136 0 0 0-.793-.39 1.08 1.08 0 0 0-.816.295c-.06.06-.107.106-.154.166a2.635 2.635 0 0 1-.19-.142c-.555-.438-1.253-.947-1.679-1.408-.178-.201-.355-.308-.734-.308-.142 0-.508-.012-.757-.012-.26 0-.402.19-.686.45-.165.13-.698.556-1.242.97.26.249.509.52.745.793.071.07.142.153.213.236.237-.189.426-.33.556-.437.178-.142.414-.178.627-.178.213 0 .52.166.746.485.153.237 1.526 2.047 2.673 3.3-.13.048-.26.084-.367.131-.485.213-1.597.166-2.082.13-.485-.047-.58-.166-.91.355-.13.201-.297.438-.45.639-.166.19-.296.426.047 1.005.509.852 1.751 3.088 2.165 4.094.414 1.017.9 1.171 1.704 1.502.792.32 2.141 1.1 2.307 1.278l.047-.77c-.237-.236-.994-.52-1.278-.626-.284-.107-.367-.225-.012-.225.343 0 1.29.343 1.964.615-.201-.757-.923-1.597-1.36-2.058-.568-.166-1.148-.166-1.385.012a.323.323 0 0 1-.331.366c-.213 0-.367-.189-.296-.402.071-.225.414-.307.343-.733-.082-.438-.615-.509-.958-.545-.485-.698-1.053-1.727-1.301-2.153-.26-.402-.107-.638.07-.78.415-.344 1.278.177 3.005.283.604.036 1.373.071 2.154.107.224 2.011 1.029 3.928 3.833 4.626 1.36.33 2.78 1.336 3.253 2.65-5.584-.095-6.46 2.082-6.46 4.14 0 2.343 1.964 2.213 1.964 3.963 0 1.527-4.696 2.154-6.116 2.367-1.207.177-1.893.437-2.46 1.017-.58.58-1.172 1.136-2.225 2.189 0 0 .45.106.9.082l.792-1.029c.237-.343.402-.639.556-.603.154.023.047.284-.13.65l-.663 1.1c2.757.19 2.946-.827 2.946-1.253 0-.426-.686-.71-.284-.97.39-.26.722-.083 1.041.283.32.367.414.687 1.183.403 0 0 6.01-2.497 6.78-2.84.674-.307.484-.615.082-.946-.461-.367-.532-.97-.532-1.597 0-1.822 1.1-2.39 3.052-2.354-.036.319-.06.615-.06.875 0 2.84 4.295 5.62 5.454 5.62.521 0 1.219-.39 1.255 1.324.035 1.266.283 2.154.059 3.609-.225 1.443-.64 1.668-1.515 2.283-.875.615-1.703 2.532-2.07 2.946.39.248.816.284 1.136-.65.272-.77.58-1.326.91-1.515-.342.863-.59 2.106-.745 2.484 1.089.19 2.875-.804 2.875-1.585 0-.77-.615-.71-.615-1.219 0-.236.272-.496.615-.496.438 0 .77.354.805.52.485-.26.78-.745.769-1.87-.013-.437-.025-.898-.048-1.371.036.059.06.118.095.177.213.32.568.52.994.556.402.036.828-.083 1.206-.32.426-.283.722-.71.817-1.159.012-.094.035-.19.035-.272 0-.248-.07-.473-.201-.674a1.245 1.245 0 0 0-.805-.533c-.45-.094-.958.012-1.384.296-.402.272-.686.65-.804 1.053-.083-1.538-.201-2.993-.154-3.585.059-.863.094-1.254-.19-1.384-.295-.13-.615.355-1.04.355-.414 0-1.68-1.16-1.68-2.39 0-1.23 1.325-2.815 1.266-4.483-.025-.533.307-.805.508-.331.26.58.64 1.36 1.207 1.987-.343 2.118 1.976 4.176 3.88 2.65-.946.142-1.597-.71-2.01-1.538.165.024.33.036.508.036.094 0 .2 0 .296-.012.662.84 2.804.769 3.348-1.302-.379.438-1.148.77-1.692.687.804-.616 1.219-1.633 1.219-2.733 0-5.36-6.507-5.986-6.507-10.86 0-1.81 1.597-2.97 2.685-2.97.426 0 .746.13 1.006.32-.414.425-.639 1.076-.603 1.869.165 3.845 6.459 3.655 6.542 5.513.71-2.792-3.987-1.929-4.153-5.69m-22.464 4.365c-.58-.272-.876-.828-.674-1.254.094-.201.283-.296.414-.343.296-.107.65-.071.982.082.33.154.58.426.686.71a.723.723 0 0 1-.012.544.693.693 0 0 1-.414.343c-.296.107-.651.083-.982-.082m-.438-2.13a1.27 1.27 0 0 0-.734.639c-.33.698.083 1.585.923 1.988.462.224.982.272 1.408.118a1.27 1.27 0 0 0 .733-.639c.143-.284.154-.627.036-.958-.154-.438-.509-.817-.958-1.03-.474-.224-.982-.272-1.408-.118m11.5 20.644zm.011-.556c-.224 0-.39-.13-.496-.236-.213-.213-.332-.556-.332-.923.012-.367.142-.698.367-.911a.652.652 0 0 1 .497-.213c.473.012.84.52.828 1.16-.012.354-.142.697-.367.91a.652.652 0 0 1-.497.213M90.8 48.92c-.32.319-.521.792-.533 1.3v.048c0 .497.178.958.485 1.278.249.26.556.402.888.402.319.012.638-.118.887-.367.331-.319.532-.792.544-1.3 0-.439-.118-.865-.367-1.184-.26-.343-.615-.544-1.005-.544-.32-.012-.64.118-.9.367M81.24 23.223c0-.272.166-.591.462-.828.248-.19.556-.284.816-.249a.57.57 0 0 1 .414.213c.118.154.13.332.107.45-.036.272-.202.544-.45.745-.426.332-.994.343-1.242.036a.638.638 0 0 1-.107-.367m.119-1.266c-.687.533-.888 1.408-.45 1.976.438.556 1.349.58 2.023.059.367-.296.603-.698.663-1.112.035-.32-.036-.627-.225-.864a1.098 1.098 0 0 0-.77-.426 1.632 1.632 0 0 0-1.241.367m12.99 32.522c-.616-.118-1.054-.58-.983-1.03a.78.78 0 0 1 .308-.449c.26-.177.615-.248.97-.177.568.094.994.508.994.922 0 .036-.012.071-.012.107-.083.461-.663.733-1.278.627m-.982-1.94a1.247 1.247 0 0 0-.544.804c-.071.379.047.77.331 1.089.272.307.663.52 1.1.591.438.083.876.024 1.219-.166.39-.2.627-.52.698-.91.142-.758-.497-1.503-1.42-1.68-.509-.083-1.005.011-1.384.272m8.684-2.011c0-.9.733-1.621 1.632-1.621.888 0 1.621.721 1.621 1.62 0 .9-.733 1.621-1.62 1.621-.9 0-1.633-.721-1.633-1.62m-.556 0c0 1.206.982 2.188 2.188 2.188a2.189 2.189 0 0 0 2.177-2.188 2.186 2.186 0 0 0-2.177-2.177 2.189 2.189 0 0 0-2.188 2.177M41.229 6.08c.2.307.272.461.284.698-.154-.06-.332-.213-.52-.473l.106 1.17c.13-.212.248-.354.414-.425-.036.769-.343 1.088-.604 1.136a.485.485 0 0 1-.603-.39c-.07-.344.225-.557.532-.25.048-.709-.52-.697-.769-.39.296-.686.178-1.135-.425-1.502-.379.639-.225 1.053.26 1.538-.473-.237-.888.166-.473.686.094-.45.485-.355.58.012.082.307-.226.71-.722.852-.734.224-.959-.237-1.136-.627.154-.107.532-.071.934.189l-.343-1.148c-.165.414-.402.58-.686.698-.024-.33.213-1.005.213-1.005l-1.384.568s.639.307.864.567c-.296.107-.58.154-.982-.023l.544 1.065c.118-.474.355-.758.544-.793.142.402.296.9-.367 1.242-.473.249-.958.166-1.124-.106-.189-.32.025-.675.403-.414-.06-.663-.64-.651-.805-.154 0-.686-.177-1.1-.887-1.29-.19.686.047 1.089.733 1.373-.39-.036-.804.343-.272.816 0-.426.367-.485.556-.19a.491.491 0 0 1-.153.699c-.225.142-.675.13-1.23-.39.165-.072.354-.036.59.011l-.745-.91c.048.319.025.555-.035.709-.166-.19-.213-.343-.284-.698l-.568.509c.533.33 1.16.84 1.905 1.88.793-.496 2.212-1.182 3.088-1.537.875-.367 2.366-.864 3.277-1.053-.19-1.266-.107-2.07.059-2.674zm-5.844-1.562.402.876.52-.616a.09.09 0 0 0 .06.024c.047.296.059.816.059 1.1 0 .355.283.651.638.651.355 0 .651-.296.651-.65a.644.644 0 0 0-.343-.569 4.794 4.794 0 0 1-.71-.662.168.168 0 0 0 .024-.083l.864.083-.343-.911-.639.544c-.012-.012-.024-.012-.035-.023l-.048-.935-.887.331.592.698a.165.165 0 0 0-.025.071zm3.217.686a.493.493 0 0 0 0-.71.493.493 0 0 0-.71 0 .507.507 0 0 0 0 .722c.19.19.51.19.71-.012m1.148-.851a.493.493 0 0 0 0-.71.507.507 0 0 0-.722 0 .515.515 0 0 0 0 .71c.202.2.52.2.722 0m1.337.224a.493.493 0 0 0 0-.71.493.493 0 0 0-.71 0 .493.493 0 0 0 0 .71c.19.201.52.201.71 0m.118 1.077c.19.201.509.201.71 0a.515.515 0 0 0 0-.71.504.504 0 0 0-.71-.012.507.507 0 0 0 0 .722m-5.75.935a.502.502 0 1 0 .013-1.006.502.502 0 0 0-.012 1.006m-1.337.082a.503.503 0 1 0 0-1.005.495.495 0 0 0-.497.508c0 .273.213.497.497.497m-.284.604a.512.512 0 0 0-.509-.509.505.505 0 0 0-.509.509c0 .272.225.508.51.508a.52.52 0 0 0 .508-.508M34 8.624a.503.503 0 1 0-1.006-.012.503.503 0 0 0 1.006.012m8.826 4.141c-.698.556-1.644.047-2.07-.663.97-.414 2.094-.851 2.863-1.325-.698 1.077-.225 1.55-.793 1.988m-.154 7.347c-.91.39-1.609-.403-1.798-.947-.166-.556-.32-1.005-.107-1.207.403-.39.52-.697.284-1.17-.272-.569-.864-.296-1.502-.143.295-.544.319-.922-.083-.863-.485.047-.497.84-.757.745-.272-.095-.119-.544-.119-.793 0-.33.213-.437.545-.591l2.638-.994c.343-.13.58-.19.804.047.166.166.592.39.462.64-.13.26-.675-.296-1.065 0-.32.236-.036.496.544.674-.568.33-1.171.556-.982 1.147.166.509.461.639 1.018.639.295 0 .508.438.757.946.26.51.33 1.444-.64 1.87M37.669 14.8c-.71.059-.698-.615-1.94-.911.875-.178 1.999-.627 2.98-.994.19.816-.153 1.822-1.04 1.905m13.605 21.46c-.107-.78-.013-1.514-.9-2.555-.875-1.006-3.762-4.2-4.673-5.23.225-.023.497.024 1.065.557.343.331 1.219 1.17 1.834 1.786a17.72 17.72 0 0 1 3.312-5.477c.26-.284.52-.556.781-.817a5.924 5.924 0 0 0-1.845.805c-.036-.887-.249-1.727-.852-2.283.225-1.243.035-2.745-2.757-4.59 1.42.342 2.272 1.632 3.348.638-.97-.023-.993-2.165-4.519-3.927 1.349-.036 2.402 2.14 3.963.91-1.478-.177-1.964-2.791-4.614-3.596.923.107 1.87.556 2.65-.52-.91.224-1.455-.628-2.437-.698.367-1.148.273-1.858-.118-2.71-.686.048-1.396.26-1.905.675-.082-.627-.745-.663-1.325-.615.036.272.154.662-.142.721-.473.095-2.046.52-3.265.982-1.218.473-2.603 1.349-3.005 1.62-.248.166-.461-.236-.615-.413-.426.367-.852.84-.532 1.313-.675.06-1.432.237-2.059.733 0 .793.65 1.562 1.62 1.976-1.632 1.633-.153 3.135-1.596 4.555 2.035.07 1.68-2.745 2.697-3.135-.106 1.987-1.207 2.33-1.207 4.472 0 1.147.675 2.378.071 3.135 1.692-.462 1.242-4.212 2.295-5.348.19.651.083 1.278-.13 1.917-.591 1.75.06 4.14-.863 4.921 1.514-.153 1.857-2.295 2.874-3.525-1.076 2.84-2.247 7.737-3.82 10.032-2.947 3.987-4.674 8.837-7.383 8.837-1.195 0-2.094-.733-2.094-2.236 0-4.53 7.76-7.642 7.76-12.457 0-2.141-1.75-2.97-2.85-2.97-.734 0-1.621.367-2.378.982-.32-.118-.64-.2-.911-.2-2.745 0-2.011 4.933-4.401 4.885.946.533 2.579-.508 3.549-1.88-.414 3.193-5.004 2.342-4.65 6.175.64-3.005 7.974-2.567 7.974-7.122 0-.509-.26-.947-.627-1.278.544-.355 1.065-.485 1.538-.485.876 0 1.68.65 1.68 1.94 0 4.034-7.701 7.442-7.701 12.41 0 .828.236 1.526.638 2.082-.544.225-1.1.119-1.573-.425-.035 1.277 1.786 2.082 2.934 1.443.248.083.52.142.804.154-.355.946-1.526 1.242-2.153 1.195 1.893 1.49 5.194-.462 5.004-2.154 1.503-1.206 2.461-3.277 3.538-4.637-.06.32-.119.627-.166.935-1.112 2.01-2.141 3.809-2.425 6.459-.248 2.224-1.372 4.223-2.922 4.223-.343 0-.9-.45-1.171-.236-.485.426-.025.863-.025 1.277 0 .627-1.218 1.254-1.218 3.195 0 .887.509 1.928.32 2.508.496-.249 1.159-1.077 1.43-2.153.533 2.567-1.1 2.448.072 4.732.153-.746.91-1.065 1.36-.746.461.308.248.533-.094.876-.343.343-.651 2.046.899 1.94-.284-.19-.308-.639.461-.804 1.077-.213 1.396.283 2.532.283.71 0 .899-.934 1.455-.934.568 0 .568.438.367.757.899-.237 1.076-.733 1.076-1.242s-.414-.828-.094-1.018c.307-.189 1.36.024.946.876.533-.095.828-.485.828-1.148 0-.65-.757-1.04-1.467-.922-.118-.415-.721-.627-1.29-.627-1.265 0-1.064.993-1.928.993-1.396 0-2.744-1.798-2.744-4.85 0-1.62 1.763-2.035 3.005-2.567 1.23-.545 3.407-1.881 4.708-4.058 1.03-1.716 1.053-3.597.923-5.809 1.75.994 1.952 2.437 1.952 3.49 0 1.36-.698 1.917-1.254 2.165-.473.213-.627.13-.686.402-.06.355.177.544.378.663.627.32.51.923.675 1.573.189.663.757 1.692 1.739 2.45.106-.415.082-1.066.024-1.906 1.349.663.26 3.36 2.875 3.36-.485-.272-.355-.982-.083-1.088.284-.095.639.177 1.136.887.509.698.367.639 1.609.639 1.23 0 .674-.426 1.325-.426.662 0 .603.757.26 1.313 1.1-.331 1.431-1.171 1.065-2.035.958-.52 1.478.225 1.62.758.959-.959 0-2.118-.745-2.19.012-.354-.308-.733-.71-.756-.402-.024-.804-.048-1.23-.024-.461.024-.71.675-1.242.675-1.633 0-4.874-2.958-4.874-4.248 0-1.277 3.1-2.058 3.1-4.046 0-2.602-2.556-3.49-4.71-5.158.77-.851 3.006-1.053 4.283-.437.142-.722.604-.545.77-1.799.46 1.1-.143 2 .319 2.473.366-.532 1.29-.461 1.23-1.822.284.852-.355 2.165.284 2.721.106-.686.52-.828.792-.828.26 0 .497.19.497.603 0 1.041-1.254.757-1.254 1.929 0 .497.627.662.627.982 0 .319-.508.816-1.135.402.2.45.615.852 1.147.852.568 0 1.183-.462 1.408-1.041.308.745.07 1.573-.461 1.68.567.283 1.916.023 1.75-1.704.758.13 1.16.639.71 1.55.627-.142 1.195-.45 1.195-1.112 0-.51-.509-.864-.426-1.562.071-.58-.71-1.124-.828-1.893m14.943 8.861c-.083 0-.107-.106-.095-.166a.815.815 0 0 0 .26.095c-.118.024-.094.083-.165.071m-.119.154c-.024 0-.024-.06-.059-.071-.035-.012-.035.024-.012.07-.047-.01-.094-.035-.13.013-.012.035-.012.07.024.106.024.012 0 .06-.012.107-.024.047-.083.118-.154.07-.07-.047-.059-.118-.047-.165.024-.047.047-.083.07-.083.048 0 .072-.012.083-.047.025-.06-.024-.083-.07-.107.047-.011.07-.035.047-.059-.025-.035-.083.024-.083-.012-.012-.023.024-.035.035-.047.025-.023.048-.012.071 0l.201.095c.036.023.048.023.048.059 0 .024.012.06-.012.071m-.142-.402c-.036.059-.107.106-.166.047-.047-.06.012-.071-.06-.177.072.047.19.118.226.13m1.857 0c.024.047.07.094.177.118.9.26 1.929-.426 2.485-.272-.722-.237-1.171.19-1.846.047.39 0 .817-.083.84-.19-.307.202-1.195-.141-1.561.096-.025.011-.048.035-.071.059-.284.07-.52.213-.52.414 0 .272.342.343.981.32.627-.024 1.337-.107 1.337.011 0 .166-.45.308-1.053.308-.473 0-1.266-.308-2.271-.06v-.011c.07-.166.283-.414.189-.533.083-.035.142-.094.142-.165a.234.234 0 0 0-.166-.071c.036-.048 0-.083-.035-.119-.012-.011-.024-.106-.047-.118a.562.562 0 0 0-.19-.13c-.106-.047-.165-.047-.2-.06-.025 0-.12.024-.131.024-.035-.011-.095-.011-.107.048-.035-.048-.094-.06-.154-.071a.322.322 0 0 0-.024.236c-.082.012-.154.213-.224.19.012.059.035.082.07.082-.07.119-.094.26-.177.26.035.048.07.083.083.095-.048.178-.06.403-.036.556-.142-.142-.355-.485-.497-.556-.13-.083-.13-.142-.13-.284 0-.106.047-.213.047-.33-.012 0-.024-.072-.035-.096-.024-.07-.119-.13-.178-.118.025.024.06.047.071.118a.405.405 0 0 0-.047.06c-.035.035-.035.082 0 .118.012.012.012.012.012.024 0 .011-.012.035-.012.059 0 .011-.012 0-.012 0-.035-.095-.07-.213-.142-.213-.012 0-.047-.012-.06 0v-.024c0-.07-.094-.154-.188-.047.024.012.059.012.082.035a.472.472 0 0 0-.024.083c-.012.095.06.13.142.13.024 0 .035 0 .035.012s0 .024.013.036c0 .023-.013.023-.013.011-.153-.059-.224.012-.224.071v.06c-.047.047-.06.118.035.177 0-.024 0-.083.036-.095h.024l.035.036c.012.012.048 0 .095-.036h.024c.024.012.035.012.047.036.012 0 .012.012.012.024-.106.094-.094.189.048.224.012 0 .024.012.024.024-.024.19-.272.154-.26-.036-.13.213.106.379.296.26.012 0 .012 0 .024.012.012.036.024.071.059.071 0-.011.012-.035.035-.035.012 0 .025 0 .025.012 0 .047.012.118.082.13-.012-.047 0-.083.024-.083.036 0 0 .296.272.45.036.165.178.236.32.224.047.119.106.225.094.225-.047 0-.366-.035-.45 0-.046.036-.13.06-.248.095.013 0-.047.024-.047.012-.094.023-.177.012-.225-.048-.024-.047-.024-.082-.059-.153-.035-.048-.07-.083-.094-.083h-.083c-.047-.047-.165-.06-.2-.012.035 0 .082.012.118.071a.356.356 0 0 0-.036.06c-.024.035-.012.106.178.177.012 0 .035.023.012.023-.025.012-.06.024-.107-.012-.07-.059-.083-.142-.177-.094 0 .012-.036.023-.06.035 0 0-.012-.012-.024-.012-.082-.011-.213.095-.154.202.013-.024.036-.071.107-.095 0 .036.012.06.012.06.024.106.071.188.272.046.024-.011.024.012.012.012-.047.083-.177.178-.07.237l.035.035v.024c-.024.118.106.19.165.19a.196.196 0 0 1-.059-.166c.025 0 .048.011.06.011.094-.035.047-.153.106-.189.012-.012.024-.012.024.012 0 .047.025.154.142.142.107-.012.166-.107.154-.166 0-.012 0-.012.012-.012.036.036.071.071.06.13.011-.011.058-.047.082-.082.024.047.024.13-.047.2.047-.01.165-.07.19-.2.023.023.035.047.035.07l.012-.011a.376.376 0 0 0 .224-.012c.025 0 .025.012.025.012-.013.047-.013.095.012.118 0-.012.035-.059.047-.059.035 0 0 .118.07.19.025-.296.19-.178.368-.296.024-.012.024-.012.012.011-.012.024-.025.06-.071.095.07 0 .272-.095.272-.201 0-.036.142-.166.177-.509h.071c.248-.012.367-.201.603-.213-.059.071-.082.237-.07.355.012.142.177.284.224.331.012.012 0 .012-.012.012-.07.012-.154.036-.19.047-.188.13-.188-.295-.401-.212-.012 0-.048.023-.06.047-.082 0-.2.094-.177.177a.272.272 0 0 1 .13-.07v.047c-.012.023 0 .07.083.07.036 0 .047-.023.07-.023.025 0 .036.012.036.024 0 .07-.26-.048-.213.165 0 .012.013.048.036.071-.012.071.047.13.166.095-.025-.012-.071-.047-.06-.083.025.012.048.012.048.012.012 0 .024-.012.035-.036 0-.011 0-.011.013-.011.012 0 .012.011.012.023s-.012.024-.012.047c0 0 .012.06.024.071-.012.071.106.166.225.071-.036 0-.107-.011-.119-.047.024-.012.06-.023.06-.023.023-.024.023-.048.023-.083 0-.024.013-.024.025-.024h.047c.024 0 .035.012.047.024.024.047.083.094.166.059.142-.047.012-.166.13-.19a.101.101 0 0 1 .083 0c.106.024.2.036.224-.011.036-.06.025-.26-.094-.331-.07-.036.094-.474-.237-.687.154.048.675.119.758-.011.153.035.33.142.343.177.024.024.035.06-.012.095-.143.083-.119.13-.19.154H68.1c-.047-.048-.094-.119-.13-.142-.047-.024-.107 0-.107 0-.082-.012-.189.011-.224.094.035 0 .106-.023.165 0-.012.012-.012.024-.012.024-.012.023 0 .047.024.07h.012v.013c.013.011.013.023 0 .023-.082-.012-.236-.023-.2.071 0 0 .011.024.011.06-.047.035-.059.118-.024.165.012-.035.024-.06.095-.083.012.012.024.036.035.036.036.047.119-.06.201-.036.012 0 .012.012.012.012-.082.036-.153.095-.13.154.012.012.024.035.036.047-.036.06-.013.142.082.178 0-.024-.024-.071-.012-.107.036 0 .083-.012.095-.012.142-.083.047-.177.106-.224.047-.06.119.094.237-.012.024-.024.059-.071.035-.13v-.012.012c.036.023.06.07.119.047-.095-.083.012-.13.047-.178.012-.023.012-.023.024-.023.047.012.107 0 .166-.083-.071.012-.237-.083-.13-.13.153-.06.177-.142.106-.225-.118-.154-.367-.166-.378-.343.106 0 .2 0 .224-.012.793.012 1.29-.213 1.278-.461-.012-.201-.225-.272-.793-.237-.686.048-1.585.142-1.585-.094 0-.119.154-.213.331-.272m-1.85-2.402c.024-.047.047-.083.071-.083.047 0 .07-.012.095-.059.012-.047-.036-.07-.083-.106.047-.024.083-.036.047-.06-.035-.035-.083.012-.094-.011 0-.024.035-.036.047-.06.024-.023.047-.011.07 0l.225.107c.025.012.048.024.036.06 0 .023.012.07-.012.07-.024.012-.012-.06-.06-.07-.035-.013-.035.035-.011.082-.06-.024-.107-.047-.13 0-.025.047-.013.083.024.118.012.012 0 .06-.025.107-.012.047-.07.118-.154.082-.082-.047-.07-.13-.047-.177m.26-.568c-.035.06-.106.118-.177.06-.047-.06.012-.072-.06-.19.072.047.202.13.237.13m.166.095c.036.023.201.083.284.106-.13.024-.107.071-.178.071-.082 0-.118-.106-.106-.177m2.13-.047c.011.047.07.094.165.118.899.26 1.928-.414 2.484-.26-.71-.249-1.16.189-1.845.035.39 0 .828-.071.84-.19-.308.202-1.183-.13-1.562.095-.024.012-.035.036-.047.048-.379-.012-.911-.024-.911.32 0 .697 1.88.283 2.472.283.45 0 .521.06.521.178 0 .165-.674.2-1.006.2-.508 0-2.046-.26-2.98-.082.07-.142.236-.343.141-.45a.23.23 0 0 0 .154-.177.35.35 0 0 0-.177-.083c.035-.035 0-.083-.036-.13-.012 0-.035-.095-.047-.118-.036-.024-.107-.083-.213-.13-.095-.06-.166-.06-.201-.072-.036 0-.119.024-.13.024-.048 0-.119 0-.119.06-.035-.048-.106-.072-.165-.072a.346.346 0 0 0-.025.249c-.082 0-.165.213-.248.189.035.06.059.083.083.095-.071.118-.107.272-.178.272.024.047.047.07.071.083-.024.094-.047.177-.047.272l-.083-.036h-.035c-.107-.012-.178 0-.367-.106-.142-.083-.142-.142-.142-.284 0-.13.059-.237.047-.355 0-.012-.024-.071-.035-.107-.025-.082-.13-.142-.19-.118.036.024.071.047.083.118-.024.024-.059.06-.059.071-.024.036-.035.071 0 .119.012.011.012.011.012.023s0 .036-.012.06c0 .023 0 .011-.012 0-.024-.083-.07-.214-.142-.214-.012 0-.047-.011-.06-.011v-.024c0-.083-.094-.154-.2-.047.024.011.059.011.082.035a.522.522 0 0 0-.024.095c-.012.094.06.13.154.13.024 0 .024.012.035.012 0 .023.013.035.013.047 0 .012 0 .012-.013.012-.165-.071-.236 0-.236.07v.06c-.047.047-.07.13.035.201 0-.035 0-.094.036-.106.012 0 .012-.012.024-.012l.047.047c.012 0 .036 0 .083-.035.024-.012.024-.012.047 0 .012 0 .024.012.036.023.024.012.012.024.012.036-.119.106-.095.2.047.225.024.011.024.023.024.035-.012.19-.272.154-.26-.035-.142.224.119.39.308.284.012-.012.012 0 .012 0 .012.047.035.07.07.07 0 0 .013-.035.048-.035.012 0 .012.012.012.024 0 .047.024.118.095.118-.013-.036 0-.071.024-.071.035 0 .035-.083.272.047.024.036.047.071.094.095l.178-.036c-.025.142.012.343-.012.343-.048 0-.32-.035-.403.012-.142.083-.461.19-.556.06-.035-.048-.024-.083-.059-.154-.035-.06-.07-.083-.106-.095h-.071c-.06-.06-.178-.06-.225-.024.035.012.083.024.118.083-.012.024-.024.06-.035.071-.024.036-.012.107.201.178 0 0 .024.023 0 .035-.024.012-.059.012-.106-.024-.083-.059-.095-.141-.19-.094 0 .012-.035.023-.059.035-.012 0-.024-.011-.024-.011-.095 0-.225.106-.166.212.012-.023.048-.082.107-.094.012.023.024.06.024.06.024.117.06.2.272.058.024-.023.024 0 .024 0-.047.095-.189.178-.082.26 0 0 .024.012.047.036 0 0-.012.012-.012.024-.012.106.106.2.177.2-.024-.035-.07-.094-.059-.189.024.012.047.024.06.024.094-.047.058-.177.106-.213.024 0 .035 0 .035.024.012.047.025.153.154.153.119-.011.178-.118.154-.177 0-.012.012-.012.024-.012.036.024.071.071.06.13.011-.011.058-.035.082-.082.024.059.035.13-.047.212a.27.27 0 0 0 .189-.212c.024.023.047.047.047.07l.012-.011a.552.552 0 0 0 .249 0c.012-.012.012 0 .012 0-.012.059-.012.106.012.13 0-.012.035-.06.047-.06.047 0 0 .119.083.19.024-.308.272-.237.461-.355.024-.024.024-.012.024 0a.179.179 0 0 1-.082.107c.213.13.426-.154.485-.32a.139.139 0 0 0 .059-.06c.012.036.012.072-.036.096.202.011.178-.142.26-.142.616.059.143-.51 1.136-.343.06.011.178-.06.237-.107-.071.13-.071.402.07.426.048.012.178.047.225.095.013.011 0 .023-.012.023-.07.012-.165.024-.189.047-.213.142-.213-.319-.438-.224-.012 0-.047.023-.059.047-.094-.012-.213.106-.189.19.024-.024.07-.072.142-.084v.048c0 .035.012.07.083.07.047 0 .059-.011.082-.011.025 0 .036 0 .036.024 0 .082-.284-.048-.237.177 0 .012.036.06.048.071-.013.071.047.142.165.106-.012-.011-.059-.047-.047-.082h.047c.012 0 .024-.012.036-.036 0-.012 0-.012.012-.012s.024.012.024.024-.012.024-.012.047l.012.071c-.012.095.118.178.237.095-.036 0-.107-.024-.119-.06.024-.011.06-.035.06-.035.011-.012.023-.047.023-.083 0-.011.012-.023.025-.023h.059c.024 0 .035.012.035.023a.154.154 0 0 0 .178.071c.153-.059.024-.189.142-.212.024 0 .059-.012.094 0 .107.035.284.023.32-.024.035-.071.012-.272-.119-.343-.07-.047.012-.13-.059-.237.13.06.26.107.438.107.32 0 .473-.048.639-.142.177-.095.343-.048.39-.036.047.012.07.024.047.083-.082.166-.035.177-.082.26-.048.06-.178.012-.272 0-.048 0-.107.036-.107.048-.083.011-.201.082-.225.177a.505.505 0 0 1 .178-.071c-.012.012-.012.036-.012.036-.025.118.094.153.189.07.012-.011.035 0 .024.024-.083.047-.225.154-.142.201.012 0 .024.012.047.024-.024.07.012.142.071.154-.012-.036-.012-.06.036-.142.024 0 .059.012.059.012.07 0 .07-.154.165-.19.013-.012.025-.012.013 0-.048.083-.095.19-.025.213h.06c0 .071.07.118.177.071-.012-.012-.06-.035-.071-.07.035-.024.07-.072.07-.072.095-.177-.046-.177-.023-.26.024-.071.177-.024.212-.19.013-.035.013-.094-.035-.118h-.012.012c.047 0 .095.012.13-.059-.13.012-.059-.106-.059-.166 0-.011 0-.023.012-.023a.272.272 0 0 0 .107-.19c-.06.06-.213.119-.201 0 0 0 .012-.082-.119-.059-.212.012-.52-.023-.922-.059-.025 0-.048-.023 0-.023.402-.036 1.23-.071 1.23-.39 0-.155-.094-.356-.745-.32-.71.035-2.295.26-2.295-.13 0-.201.437-.178.686-.166m-2.51-2.401c.025-.047.036-.095.071-.095.048 0 .083-.012.095-.059.024-.059-.036-.083-.083-.118.047-.012.083-.036.047-.06-.024-.035-.082.024-.094-.011-.012-.024.024-.036.047-.047.024-.024.047-.024.071-.012l.237.118c.024.012.047.024.047.06 0 .023.012.07-.024.07-.025.012-.013-.059-.06-.07-.035-.013-.035.023-.012.082-.059-.024-.106-.047-.13.012-.024.047-.024.07.012.118.025.012 0 .06-.012.118-.024.048-.094.119-.165.071-.095-.035-.071-.13-.048-.177m.272-.592c-.047.06-.118.119-.19.06-.058-.071.013-.083-.07-.202.083.048.213.13.26.142m.178.095c.035.024.2.083.283.107-.13.023-.094.082-.189.082-.082-.011-.118-.118-.094-.189m5.323 1.372c0-.011 0-.023.013-.035.035-.024.07-.083.07-.19-.047.06-.2.13-.213.012 0-.011 0-.106-.13-.07-.224.011-.437-.036-.863-.072-.025 0-.048-.023 0-.023.508-.036 1.194-.095 1.194-.367 0-.237-.248-.379-.981-.379-.734 0-3.005.273-3.005-.141 0-.26.757-.154 1.325-.142.024.047.082.082.165.106.947.272 2.035-.438 2.603-.272-.745-.272-1.219.19-1.928.035.414 0 .863-.082.887-.2-.331.212-1.254-.143-1.645.094-.024.024-.047.035-.059.06-.698-.013-1.561-.096-1.561.319 0 .733 2.59.307 3.206.307.615 0 .757.071.757.19 0 .165-.615.212-.97.212-.58 0-2.993-.32-3.951-.035.059-.154.295-.402.177-.533.095-.035.154-.106.154-.189a.35.35 0 0 0-.178-.083c.036-.035 0-.082-.047-.13-.012-.012-.024-.106-.047-.118a.992.992 0 0 0-.213-.154c-.107-.047-.177-.047-.225-.059-.024-.012-.118.024-.13.012-.059 0-.118 0-.13.07-.036-.047-.107-.07-.166-.082a.387.387 0 0 0-.024.26c-.083.012-.178.237-.26.213.035.06.059.083.07.095-.058.13-.094.284-.177.284a.348.348 0 0 0 .119.118c-.013.071-.013.142-.013.213l-.13-.047h-.118a.35.35 0 0 0-.119-.024c-.118-.012-.2-.201-.402-.308-.142-.094-.154-.165-.154-.319 0-.118.06-.237.06-.355-.013-.012-.025-.083-.048-.118-.024-.071-.13-.142-.19-.13a.18.18 0 0 1 .084.13.524.524 0 0 0-.06.07c-.024.036-.035.095 0 .131.013.012.013.012.013.024 0 .023 0 .035-.013.059 0 .023-.012.012-.012 0-.035-.095-.082-.213-.153-.225-.013 0-.048-.012-.071 0 .012-.012.012-.012.012-.024 0-.094-.107-.165-.213-.059.024 0 .07.012.083.036a.588.588 0 0 0-.025.106c-.012.095.06.13.166.13.024 0 .035.012.035.024s.013.024.013.035c0 .024 0 .012-.013.012-.177-.07-.248 0-.248.083v.071c-.059.036-.07.13.035.19 0-.024 0-.083.036-.107h.024a.515.515 0 0 0 .047.035c.013.012.036 0 .107-.035h.035a.178.178 0 0 0 .048.035c.012.012.012.024 0 .024-.107.118-.095.225.059.248.012 0 .024.012.024.036-.012.201-.296.166-.284-.036-.142.237.13.414.32.284.024 0 .024 0 .035.012a.09.09 0 0 0 .06.083c0-.012.011-.047.046-.047.012 0 .012.011.012.023.013.06.025.119.107.13-.012-.035 0-.082.024-.082.036 0 .178.307.474.473-.013-.024.118-.083.177-.107a.17.17 0 0 0 .107.13l.047-.023c-.012.142.154.284.118.284-.047 0-.331-.036-.414.012-.154.082-.485.2-.58.059-.035-.048-.035-.095-.07-.166-.036-.06-.071-.095-.107-.095h-.083c-.059-.059-.177-.07-.236-.023.047.012.094.012.13.083-.012.035-.035.059-.035.07-.025.048-.012.119.2.19.013 0 .036.023.025.035-.035.012-.083.024-.13-.023-.083-.06-.095-.154-.19-.095-.012.012-.047.024-.07.036-.013 0-.013-.012-.025-.012-.094 0-.236.106-.177.225.012-.036.047-.095.118-.095a.197.197 0 0 1 .025.06c.024.117.07.2.283.046.036-.011.036.012.025.012-.048.095-.202.19-.083.26 0 0 .024.024.047.036 0 .012-.012.024-.012.024-.012.13.118.224.19.224-.025-.035-.083-.106-.072-.189.025 0 .06.012.071.012.107-.047.048-.178.119-.213.012-.012.024 0 .024.012.012.059.035.177.166.165.118-.011.177-.118.165-.189 0 0 0-.012.012 0 .048.024.083.071.071.13.012-.012.06-.047.083-.094.024.07.035.142-.047.224a.335.335 0 0 0 .213-.213c.012.012.035.048.035.071.012 0 .012-.011.012-.011.047.011.13.023.26 0 .012-.012.025 0 .012.011 0 .048 0 .095.025.13 0-.023.035-.07.047-.07.035 0 0 .118.083.2.024-.33.2-.2.402-.33.024-.012.024 0 .024.011a.169.169 0 0 1-.094.107c.07.07.378-.13.378-.249 0-.035.107-.035.213-.059.201.012.177-.154.26-.142 1.219.166.52-.52 1.94-.378.071 0 .095-.083.154-.13-.07.13-.07.414.071.437.06.012.19.06.248.095.012.023 0 .023-.012.035-.082 0-.177.024-.2.048-.226.142-.226-.332-.462-.237-.012 0-.047.024-.071.047-.083 0-.213.107-.19.202.025-.036.072-.071.154-.083 0 .023-.012.047-.012.047 0 .036.012.071.095.071.047 0 .059-.024.083-.024.024 0 .035.012.035.036 0 .083-.296-.06-.237.19 0 .011.025.058.048.07-.012.083.047.154.177.107-.035-.012-.07-.048-.07-.083h.07s.012-.012.024-.036c0-.011 0-.011.013-.011.012 0 .024.011.024.023s-.012.024-.012.048c0 .011.012.07.024.082-.012.083.118.178.248.095-.035-.012-.118-.024-.13-.071a.617.617 0 0 1 .059-.024c.024-.011.024-.047.024-.094 0-.012.012-.024.025-.024h.059c.035 0 .047.012.047.024.024.059.094.106.19.07.153-.047.011-.189.141-.224h.095c.118.035.307.035.343-.024.024-.059.012-.284-.119-.355-.082-.047 0-.142-.07-.248.13.06.271.106.46.106.344 0 .45-.047.604-.141.178-.107.367-.048.414-.036.036 0 .071.024.06.083-.06.177 0 .19-.048.272-.035.06-.177.012-.284 0a.18.18 0 0 0-.106.047c-.083.024-.178.095-.19.19.036-.024.095-.071.166-.071v.035c0 .118.13.154.213.071.012-.012.035 0 .024.024-.083.047-.213.165-.106.2 0 .013.024.024.047.036-.012.071.047.154.094.166-.012-.047-.012-.071.025-.142h.059c.07 0 .047-.154.142-.201.012 0 .024 0 .012.012-.036.082-.06.189.012.213.012 0 .035.011.07.011.013.071.083.119.202.06-.024 0-.083-.036-.095-.071.025-.024.06-.06.06-.083.07-.178-.083-.178-.072-.249 0-.094.178-.035.19-.213 0-.035 0-.082-.06-.118h-.011c.059 0 .106.012.13-.07-.13.01-.071-.096-.083-.167m-14.758-5.62c-.082-.01-.118-.117-.106-.188.035.023.2.082.283.106-.13.036-.094.083-.177.083m-.13.166c-.025 0-.025-.071-.071-.083-.036 0-.036.035-.012.083-.048-.012-.107-.048-.13.011-.025.048-.013.071.012.119.024.011.012.059-.013.106-.024.06-.082.142-.165.095-.083-.048-.071-.142-.047-.19.024-.047.047-.094.07-.094.048.012.083 0 .095-.047.024-.06-.036-.083-.083-.119.06-.023.083-.047.06-.07-.036-.024-.095.023-.107 0 0-.024.035-.048.047-.06.024-.024.047-.024.083 0l.224.107c.036.011.048.023.048.059 0 .023.012.07-.013.083m-.153-.45c-.036.06-.119.118-.178.06-.059-.06 0-.084-.07-.202.07.047.2.142.248.142m.402 1.964a.35.35 0 0 1 .118-.024c-.012 0-.012.036-.024.036.213.012.19-.19.284-.178 1.195.166.509-.52 1.928-.378.071 0 .095-.036.154-.083-.07.13-.07.355.07.39.06.012.19.048.25.107.011.012 0 .023-.013.023-.083.012-.177.024-.201.048-.225.142-.225-.331-.461-.237-.012 0-.048.024-.06.036-.106 0-.224.118-.2.213.024-.036.07-.071.153-.083v.047c-.012.036 0 .083.083.083.047 0 .06-.036.095-.036.012 0 .024.012.024.036 0 .083-.296-.06-.237.19 0 .011.024.047.047.07-.012.071.048.154.178.107-.024-.012-.07-.048-.06-.083h.048c.012 0 .024-.012.036-.036 0-.011 0-.011.012-.011s.024.011.024.023-.012.024-.012.048c0 .011.012.07.024.082-.012.083.118.178.248.083-.035 0-.118-.012-.13-.059a.617.617 0 0 1 .06-.024c.023-.011.023-.047.023-.094 0-.012.025-.012.025-.012.024-.012.047-.012.07-.012.025 0 .025.012.036.024.024.059.094.106.19.07.153-.047.011-.189.141-.212a.13.13 0 0 1 .095 0c.13.023.307.023.343-.036.035-.059.012-.284-.119-.366-.07-.036 0-.13-.07-.237.142.047.272.106.46.106.344 0 .427-.047.569-.142a.588.588 0 0 1 .414-.035c.047 0 .083.024.07.083-.035.177.013.189-.023.272-.036.07-.178.012-.272 0-.071 0-.107.035-.107.047-.095.024-.19.095-.178.201.025-.023.083-.082.142-.082 0 .011.013.035.013.035.012.118.142.154.213.071.012-.012.047 0 .024.024-.06.047-.19.165-.083.213.012 0 .035.011.06.023-.013.071.046.154.106.166-.012-.048-.025-.071.012-.142h.059c.07 0 .035-.154.118-.201.012 0 .025 0 .025.012-.036.082-.048.189.024.212.012 0 .035.012.07.012.025.06.095.119.202.06-.024-.012-.083-.036-.095-.072.024-.023.06-.07.06-.07.047-.19-.107-.19-.107-.26 0-.095.177-.036.177-.214 0-.035-.012-.094-.07-.118-.013 0-.013 0-.013-.012v.012c.06-.012.107 0 .13-.06-.13 0-.082-.106-.106-.177 0-.011 0-.023.012-.035.035-.024.07-.095.059-.19-.047.06-.19.13-.213 0 0 0-.012-.082-.142-.059-.225.012-.379-.023-.804-.07.425-.036 1.194-.119 1.194-.403 0-.213-.248-.367-.981-.367-.746 0-3.017.273-3.017-.142 0-.26.769-.153 1.337-.141.024.047.07.082.165.106.947.272 1.94-.367 2.627-.142-.545-.485-1.243.06-1.952-.095.414 0 .851-.082.887-.2-.331.212-1.254-.143-1.645.094-.024.024-.047.035-.059.06-.698-.013-1.561-.096-1.561.319 0 .745 2.59.307 3.206.307.627 0 .757.06.757.178 0 .189-.615.224-.97.224-.568 0-2.981-.32-3.951-.023.059-.178.283-.414.177-.544.095-.036.154-.107.166-.19a.442.442 0 0 0-.19-.083c.025-.035-.012-.082-.047-.13 0 0-.024-.106-.047-.13-.036-.023-.107-.083-.213-.142-.107-.047-.177-.047-.225-.059-.024-.012-.118.024-.13.024-.059-.012-.118-.012-.13.047a.354.354 0 0 0-.166-.071c-.035.083-.059.154-.024.26-.083.012-.178.237-.26.201.035.071.059.095.082.107-.07.118-.106.284-.189.284.036.047.06.07.083.094-.024.071-.024.142-.036.225l-.07-.035h-.119c-.035-.012-.07-.012-.118-.024-.119-.012-.201-.201-.403-.32-.142-.082-.153-.153-.153-.295 0-.13.07-.248.059-.367-.012-.012-.025-.083-.036-.118-.024-.083-.142-.142-.2-.13.035.035.07.059.082.142l-.06.059c-.023.035-.035.095 0 .13a.036.036 0 0 1 .013.024c0 .023 0 .035-.012.059 0 .023-.012.012-.012 0-.036-.095-.071-.225-.166-.225 0 0-.035-.012-.047-.012v-.012c0-.094-.107-.165-.225-.059.035.012.083.012.094.048a.358.358 0 0 0-.024.094c-.012.095.06.13.166.13.024 0 .024.012.035.024 0 .012 0 .024.012.035.013.012-.012.012-.012.012-.177-.07-.248 0-.248.083v.06c-.059.047-.07.141.035.2 0-.023 0-.082.036-.094.012-.012.024-.012.024-.012.024.012.047.035.047.047.025 0 .048 0 .095-.047h.047a.178.178 0 0 0 .047.035c.012.012.012.024 0 .024-.118.118-.094.225.06.248.012.012.024.012.024.036-.012.213-.296.166-.272-.036-.154.225.106.415.32.296.011-.012.011-.012.011 0 .012.036.036.071.071.083 0-.012.012-.047.047-.047.012 0 .012.011.012.023.013.048.025.119.107.13-.012-.035 0-.082.024-.082.036 0 .19.284.485.45.06-.024.142-.024.166-.084a.122.122 0 0 0 .07.06c.013.141.107.319.072.319-.048 0-.52-.024-.615.024-.13.07-.474.2-.568.059-.036-.048-.025-.095-.071-.166a.239.239 0 0 0-.107-.095h-.082c-.06-.059-.19-.07-.237-.023.047 0 .094.012.13.083-.012.023-.035.059-.035.07-.024.048-.012.119.2.19.013 0 .036.024.025.035a.172.172 0 0 1-.13-.011c-.083-.071-.095-.166-.19-.107-.012 0-.047.024-.07.036-.012-.012-.012-.012-.025-.012-.094-.012-.236.106-.177.225a.18.18 0 0 1 .118-.107c.013.036.025.06.025.071.012.118.07.201.296.047.024-.011.024.012.012.012-.048.095-.201.19-.083.26l.047.048-.012.012c-.024.13.119.224.19.224-.025-.035-.083-.106-.071-.2a.25.25 0 0 0 .07.023c.107-.047.048-.178.119-.213.012-.012.024 0 .024.012.012.059.035.177.166.165.118-.011.177-.118.165-.189 0 0 0-.012.012 0 .048.024.071.071.06.13a.234.234 0 0 0 .094-.094.192.192 0 0 1-.047.224c.047-.011.177-.07.2-.213.025.024.048.048.048.06h.012c.048.011.13.023.26-.012.013 0 .025.012.013.012 0 .059 0 .106.024.13 0-.012.024-.06.047-.06.035 0 0 .13.07.202.036-.32.415-.166.628-.296.012-.012.024 0 .012.012a.179.179 0 0 1-.083.106c.06 0 .142-.035.225-.083.142-.047.379-.153.367-.236m.824-3.159.012-.012-.012.012m-.604-1.29c.036-.047.048-.094.083-.094.047 0 .07-.012.094-.06.025-.058-.035-.082-.082-.117.047-.012.082-.036.047-.06-.035-.035-.083.012-.094-.011-.013-.024.024-.036.047-.06.024-.023.035-.011.07 0l.237.107c.024.024.047.035.047.07 0 .025 0 .072-.024.072-.024.012-.012-.071-.059-.071-.035-.012-.035.024-.012.083-.059-.024-.107-.048-.142 0-.024.047-.012.083.024.118.012.024 0 .071-.024.118-.012.06-.083.13-.166.083-.082-.035-.07-.13-.047-.177m.272-.604c-.035.071-.107.13-.177.06-.06-.06.012-.072-.071-.19.07.047.213.13.248.13m.178.095c.035.035.212.095.295.118-.13.024-.106.071-.189.071s-.106-.106-.106-.189m-1.148.674c-.083-.07-.19-.2-.32-.284-.141-.082-.141-.153-.141-.307.012-.13.082-.249.082-.367-.012-.012-.024-.071-.035-.106-.024-.083-.13-.142-.19-.13.025.023.071.059.071.13l-.07.07c-.025.036-.036.083 0 .13.012.012.012.012.012.024s0 .036-.012.06c0 .023-.013.011-.013 0-.024-.095-.07-.225-.142-.225-.012 0-.047-.012-.07 0 .012-.012.012-.024.012-.024 0-.095-.095-.177-.213-.06.024 0 .07.013.082.036-.012.036-.024.095-.024.095-.012.107.06.142.154.142.024 0 .035 0 .035.012 0 .023 0 .023.013.047 0 .012-.013.012-.025.012-.165-.071-.236 0-.248.07v.072c-.06.047-.083.13.035.201 0-.035-.012-.083.036-.106h.024c.012.011.047.023.047.035.012 0 .036 0 .095-.035.012 0 .024-.012.035 0 .024.011.036.023.047.035.013 0 .013.012 0 .024-.118.118-.106.224.048.248.024 0 .024.012.024.024-.024.213-.296.177-.272-.036-.166.237.094.414.308.308.012-.012.012-.012.012 0 .012.035.035.07.07.083 0-.024.013-.048.048-.048.012 0 .012.012.012.024 0 .047.012.118.094.13-.012-.035 0-.083.025-.083.047 0 .13.154.296.249.142.07.236.213.33.118-.023.142.12.308.083.308-.047 0-.425-.024-.52.023-.142.071-.473.201-.58.06-.035-.048-.024-.095-.07-.178-.025-.047-.072-.083-.107-.083h-.071c-.06-.06-.19-.07-.237-.024a.14.14 0 0 1 .13.083.162.162 0 0 0-.035.06c-.024.047-.012.13.201.2.012 0 .036.024.012.036-.035.012-.07.012-.118-.024-.083-.059-.095-.153-.201-.094 0 0-.036.012-.071.035 0-.012-.012-.012-.024-.012-.083-.011-.237.107-.166.225.012-.035.047-.094.118-.106 0 .035.013.059.013.07.024.107.07.19.295.048.025-.012.025 0 .025.012-.06.094-.201.19-.083.26l.047.047c-.012 0-.012 0-.012.012-.024.13.119.225.19.225a.244.244 0 0 1-.071-.201c.024.012.059.024.059.024.106-.048.059-.178.118-.225.024-.012.035 0 .035.023.013.048.025.178.166.166.119-.024.178-.118.166-.19 0-.011 0-.011.012-.011.047.035.07.07.059.142a.234.234 0 0 0 .094-.095.192.192 0 0 1-.047.225c.047-.024.178-.083.201-.213.025.012.048.047.048.06h.012c.047.011.13.023.26-.013.012 0 .012 0 .012.012-.012.06-.012.107.012.13 0-.011.035-.07.06-.07.035 0 0 .13.07.212.024-.331.201-.2.414-.331.024-.012.024 0 .012.012a.179.179 0 0 1-.083.106c.225.048.58-.295.627-.437.095-.012.178-.024.225-.012.64.059.19-.58 1.23-.402.071.011.19-.071.249-.119-.071.142-.071.414.07.45.06.012.19.047.237.094.025.024.012.024 0 .024a1.005 1.005 0 0 0-.2.047c-.214.154-.226-.319-.462-.236-.012.012-.047.035-.06.047-.094 0-.224.107-.2.213a.314.314 0 0 1 .154-.095c-.013.024-.013.048-.013.06 0 .035.013.07.095.07.047 0 .047-.023.083-.023.024 0 .035.012.035.024 0 .094-.296-.048-.237.2 0 0 .025.06.036.072 0 .07.059.153.19.106-.036-.012-.072-.047-.072-.083h.06c.012 0 .024-.011.035-.035 0-.012 0-.012.012-.012s.024.012.024.024-.012.023-.012.047c0 0 .012.071.024.071-.012.095.119.19.249.095-.036 0-.119-.024-.13-.06a.617.617 0 0 1 .058-.023c.025-.024.025-.06.025-.095 0-.012.012-.023.024-.023h.07c.025 0 .036.011.036.011.024.06.095.119.178.083.165-.059.035-.189.154-.225h.094c.118.036.308.036.343-.023.024-.071.012-.284-.118-.367-.083-.035 0-.13-.071-.237.142.048.272.107.461.107.343 0 .426-.047.58-.142.166-.106.355-.047.402-.035.047 0 .083.023.06.082-.036.166.023.19-.013.272-.035.06-.177.012-.284 0-.047 0-.094.036-.094.048-.095.012-.19.094-.178.189a.31.31 0 0 1 .154-.083v.036c.012.13.142.165.213.083.012-.012.047 0 .024.023-.059.047-.189.166-.082.201 0 .012.035.024.059.036 0 .07.047.154.106.154-.024-.036-.024-.06.012-.142h.06c.07.011.035-.142.118-.19.012-.011.024 0 .012.012-.024.083-.035.19.035.213.013 0 .036 0 .071.012.012.059.095.106.201.059-.024-.012-.082-.035-.094-.071.024-.024.047-.071.059-.083.047-.177-.095-.177-.095-.26 0-.083.166-.024.166-.213a.117.117 0 0 0-.07-.106c-.013 0-.013-.012-.013-.012.06 0 .107.012.13-.06-.13.012-.082-.094-.106-.177 0-.012 0-.012.012-.023a.216.216 0 0 0 .059-.19c-.047.06-.201.13-.213 0 0 0-.012-.094-.142-.07-.225.023-.379-.024-.804-.06.485 0 1.194-.118 1.194-.402 0-.225-.248-.367-.981-.367-.746 0-2.402.272-2.402-.142 0-.201.32-.19.71-.165a.358.358 0 0 0 .165.094c.947.272 2.07-.225 2.639-.07-.675-.51-1.23.023-1.952-.131.414 0 .556-.13.58-.237-.332.213-.947-.106-1.338.13-.024.012-.035.036-.059.048-.52-.012-.946-.012-.946.331 0 .734 1.976.308 2.59.308.616 0 .746.059.746.177 0 .178-.603.225-.958.225-.533 0-2.153-.284-3.123-.083.07-.165.248-.367.153-.485a.228.228 0 0 0 .154-.19.402.402 0 0 0-.177-.082c.024-.035-.012-.095-.047-.13-.013-.012-.036-.107-.06-.13a1.66 1.66 0 0 0-.2-.142c-.119-.048-.19-.048-.225-.06-.036-.011-.13.012-.142.012-.048 0-.107 0-.119.06-.047-.048-.106-.06-.177-.071a.387.387 0 0 0-.024.26c-.083.012-.178.237-.26.201.035.071.058.095.082.095-.07.13-.094.284-.19.295.06.071.095.107.131.107-.012.106-.024.201-.024.284l-.154-.06zm3.006-3.49c-.082 0-.118-.094-.094-.165.024.023.177.082.26.106-.119.024-.095.071-.166.06m-.118.153c-.024.012-.024-.07-.06-.07-.035-.013-.035.023-.011.082-.048-.024-.095-.047-.119 0-.024.035-.024.07.012.106.012.024 0 .06-.012.107-.024.047-.082.118-.154.07-.07-.035-.059-.117-.035-.165.012-.047.035-.083.059-.083.047 0 .07 0 .083-.047.024-.06-.025-.083-.071-.106.047-.012.07-.036.047-.06-.024-.023-.083.024-.083 0-.012-.023.025-.047.036-.059.024-.023.047-.012.07 0l.214.095c.024.024.035.024.035.06 0 .023.012.058-.012.07m-.142-.402c-.036.059-.107.106-.154.047-.059-.047 0-.07-.07-.177.07.047.188.13.224.13m2.011 1.1c.793.012 1.183-.248 1.183-.497 0-.875-2.177-.331-2.177-.863 0-.083.071-.166.166-.237 0 0-.012 0 0 0 1.1-.083 1.136-.864 1.916-1.006-.934-.142-1.076.604-1.478.64a.51.51 0 0 0 .283-.462c-.2.26-.615.284-.851.58-.036.047-.06.106-.036.153-.142.095-.236.19-.236.32 0 .828 2.212.26 2.212.863 0 .213-.39.355-.994.355-.45 0-.78-.331-1.62-.106 0-.142.283-.414.177-.544a.174.174 0 0 0 .13-.166c-.047-.047-.106-.06-.154-.071.024-.047-.012-.083-.047-.118 0-.012-.024-.107-.047-.119a.818.818 0 0 0-.19-.13c-.094-.047-.165-.047-.2-.059-.025 0-.107.024-.119.024-.047-.012-.107-.012-.118.047a.309.309 0 0 0-.154-.07c-.036.082-.036.141-.012.247-.083 0-.166.202-.237.178.024.06.047.083.07.083-.07.118-.094.26-.165.272.012.035.036.059.06.059-.072.177-.107.402-.12.497-.046-.036-.106-.095-.177-.13-.13-.071-.118-.142-.106-.26.024-.119.094-.214.106-.32 0 0-.012-.06-.024-.095-.012-.07-.106-.118-.165-.106.024.024.059.047.059.106-.036.024-.06.048-.071.06-.025.035-.048.07-.012.106.012.012.012.012.012.024a.197.197 0 0 1-.025.059c0 .012-.012 0-.012 0-.024-.083-.047-.201-.118-.201-.012 0-.047-.012-.06-.012l.013-.012c.012-.083-.083-.142-.201-.047.024 0 .07 0 .07.035a.295.295 0 0 0-.023.083c-.025.071.035.106.13.118.024 0 .035 0 .035.012v.036c0 .011 0 .011-.012.011-.154-.07-.225 0-.248.06v.059c-.06.035-.083.106.012.165 0-.023 0-.07.047-.082 0-.012.012-.012.024-.012l.036.035c.012.012.035 0 .094-.023.012-.012.025-.012.036 0 .012.011.035.011.047.023.012.012.012.012 0 .024-.13.094-.13.19.012.213.024.012.024.012.024.023-.047.178-.296.142-.26-.035-.166.201.06.367.26.26.025 0 .025 0 .025.012.012.024.024.06.059.06 0 0 .012-.036.047-.036.012 0 .012.011.012.023-.012.048 0 .107.07.107 0-.024.013-.06.036-.06.036 0 .095.143.201.273a2.858 2.858 0 0 1-.485.142c-.047 0-.296-.024-.378.023-.13.06-.438.178-.533.048-.024-.048-.012-.083-.059-.154a.201.201 0 0 0-.094-.083h-.071c-.047-.06-.166-.06-.213-.024.035.012.083.012.118.083-.012.024-.024.048-.035.06-.024.035 0 .106.19.177 0 0 .024.012.011.023-.035.012-.07.024-.106-.011-.083-.06-.095-.142-.178-.095a.267.267 0 0 1-.059.035c-.012-.011-.024-.011-.024-.011-.083 0-.225.094-.166.2.012-.023.048-.082.107-.094a.24.24 0 0 1 .024.071c.024.095.06.166.26.036.025-.012.025 0 .025.011-.048.083-.19.178-.083.237 0 0 .024.024.047.036 0 .011-.012.011-.012.023-.024.107.107.19.166.19a.196.196 0 0 1-.06-.166c.025 0 .048.012.06.012.094-.036.059-.154.106-.202.025-.011.025 0 .025.012.012.048.035.166.153.154.107-.012.166-.106.154-.166-.012-.011 0-.011.012-.011.036.023.06.07.048.13.024-.012.07-.048.082-.083.025.047.036.13-.047.201.047-.012.166-.07.19-.201.024.024.035.047.047.06a.414.414 0 0 0 .236-.013c.012 0 .024.012.012.012 0 .047 0 .095.012.118 0-.011.036-.059.06-.059s-.013.119.058.19c.036-.296.19-.178.367-.296.024-.024.024-.012.024.012-.012.023-.035.07-.082.094.07 0 .236-.07.236-.177 0-.024.048-.06.119-.095.059.012.165-.023.2-.095.013.024.036.119 0 .142.19.012.391-.212.474-.224.414-.095-.26-.39.592-.343.059.011.189-.036.236-.095-.059.13-.07.39.06.414.058 0 .177.047.224.083.012.012 0 .023-.012.023a.891.891 0 0 0-.178.048c-.2.13-.2-.296-.414-.213-.012 0-.047.023-.059.035-.083 0-.201.095-.177.19.024-.024.07-.071.142-.083-.012.023-.012.047-.012.047 0 .036.012.071.082.071.036 0 .048-.023.083-.023.012 0 .024.011.024.023 0 .083-.26-.047-.213.178 0 .011.025.047.036.07 0 .072.047.13.165.095-.024-.012-.059-.047-.059-.083.025 0 .048 0 .06.012.011 0 .024-.012.024-.035 0-.012.012-.012.012-.012.012 0 .024.012.024.024 0 0-.012.023-.012.035 0 .012.012.06.012.071 0 .083.118.166.225.083-.025 0-.107-.012-.107-.06.012 0 .047-.023.047-.023.025-.012.025-.035.025-.07.012-.025.012-.025.024-.025h.059c.024-.011.035 0 .035.012a.138.138 0 0 0 .166.071c.142-.047.024-.177.13-.2.024 0 .06-.013.083 0 .118.035.284.023.307-.036.036-.048.025-.249-.106-.32-.071-.035.012-.118-.06-.225.131.06.25.107.415.107.307 0 .024-.047.154-.118.154-.107.32-.06.366-.048.036 0 .071.024.06.083-.036.154.024.166-.013.237-.035.059-.165.011-.26.011-.047-.011-.082.024-.082.036-.083.012-.166.083-.166.177.024-.023.07-.07.13-.07.012.011.012.023.012.035.012.095.13.142.201.07 0-.01.036 0 .012.013-.047.047-.165.154-.07.189l.047.024c0 .07.047.13.106.142-.024-.024-.024-.06 0-.13.025 0 .048.011.06.011.059 0 .035-.142.106-.177.012-.012.024-.012.012 0-.024.083-.035.177.036.19 0 .01.024.01.059.01.012.072.094.107.177.06-.024 0-.07-.035-.083-.06.025-.023.048-.058.048-.07.047-.166-.083-.166-.083-.237 0-.083.154-.023.154-.189a.107.107 0 0 0-.071-.106c.047 0 .094.011.118-.06-.118.012-.082-.094-.106-.153 0-.012 0-.024.012-.036.035-.024.07-.07.047-.166-.035.048-.165.119-.177 0-.012 0-.012-.082-.13-.059-.202.024-.308-.082-.687-.118-.024 0-.047-.024 0-.035m-.465 10.352-.142-.012c-.166-.012-.379.07-.402.296-.013.224.142.343.354.354l.107.012-.248 1.61-1.597-2.284c.745-.296 1.348-.615 1.668-.615.26 0 .32.118.26.639m-3.112.366c.272-.07.545-.153.793-.248l1.893 2.71c-.06.378-.118.768-.178 1.147zm2.248 5.23-3.56-5.123c.118.012.224.012.319.012.189 0 .366-.024.556-.048l2.85 4.105c-.058.39-.118.758-.165 1.053m-4.034-5.087 3.916 5.62c-2.094-.757-4.176-2.698-3.916-5.62m5.82-.437-.177-.012v-.178c.036-.627-.343-1.088-1.017-1.088-.604 0-1.763.78-3.396.78-.686 0-1.514-.33-2.023-.638l-.2.485v-.047a.399.399 0 0 0-.403-.403.399.399 0 0 0-.402.403c0 .224.177.402.402.402.13 0 .248-.06.32-.154l-.202.485c.06.036.13.06.201.095-.236 2.449 1.526 5.572 4.744 6.53.485-.13 1.03-.047 1.03.473 0 .332-.166.474-.45.474-.19 0-.32-.119-.32-.249 0-.213.38-.083.415-.237.047-.189-.071-.283-.296-.283-.225 0-.568.153-.568.52 0 .438.355.71.733.71.367 0 1.112-.201 1.006-1.077.177 0 .367-.023.414-.2l.035-.498-.165-.023.13-5.632.118.012c.213.012.39-.083.403-.307.024-.225-.166-.332-.332-.343m8.483-5.218c.142-.07.26-.177.296-.284-.154.06-.26-.011-.308-.035.119-.071.249 0 .119-.19-.13-.212-.213-.212-.343-.07-.13.13-.994-.036-.994-.675h.012c.059.119.166.19.272.237.414.26.828.095.864-.248.024-.355-.308-.521-.675-.829-.165-.13-.284-.248-.378-.343-.119-.248-.013-.485-.343-.934a1.574 1.574 0 0 0-.107-.402c-.166.295-.248.887.201 1.372.355.39 1.124.769 1.1 1.1a.209.209 0 0 1-.213.178c-.177 0-.343-.107-.52-.249l-.071-.07c-.32-.297-.615-.746-.805-.983-.354-.45-.189-.899-.13-1.277.249-.344-.154-1.053-.39-1.219 0 0 .047-.166-.024-.379-.048.048-.154.036-.213.036-.071-.13-.095-.154-.178-.178-.154-.023-.154-.106-.165-.165-.095.07-.13.154-.213.154-.13.011-.178 0-.237.047-.083.07-.13.106-.26.095-.142 0-.142.082-.13.189 0 .07.012.165.106.213.012 0 .025.012.036.012l.118.13.083-.142c-.012 0-.012 0 0 0 .047-.06.248-.071.284.07.024.095.035.12-.083.13-.118.013-.19.013-.308.013-.082.012-.082.118-.082.189 0 .083.106.118.272.083.177-.048.473-.083.473.07 0 .38-.461.356-.544.817-.107-.07-.213-.154-.26-.237a1.237 1.237 0 0 0-.332-.414 1.434 1.434 0 0 0-.32-.272c-.153-.082-.153-.153-.153-.32 0-.13.06-.26.047-.378 0-.011-.024-.082-.035-.118-.024-.083-.142-.154-.201-.142.024.036.07.06.07.142-.024.024-.047.06-.058.071-.025.036-.036.095.012.13 0 .024.012.024.012.036 0 .011-.012.035-.012.059-.012.023-.025.012-.025 0-.024-.095-.07-.237-.165-.237-.012 0-.047-.012-.06-.012v-.011c0-.107-.106-.178-.224-.06.024 0 .07.012.094.036a.588.588 0 0 0-.024.106c-.012.107.071.142.166.142.035 0 .035 0 .035.012.012.024.012.036.025.048 0 .023-.013.011-.025.011-.177-.07-.248 0-.248.083 0 0-.012.047 0 .071-.06.047-.083.142.035.213 0-.035-.012-.095.036-.118.012 0 .024 0 .035-.012.012.024.036.047.048.047 0 .012.035.012.094-.035.012-.012.024-.012.035 0 .025.012.036.023.06.035.012.012.012.024 0 .036-.119.118-.095.225.047.248-.06.13-.272.071-.26-.118-.154.237.094.426.296.343.012.083.012.248.035.248 0-.011.024-.047.047-.047.024 0 .024.012.024.012 0 .07.025.142.107.154-.012-.048-.012-.083.012-.095.036.071.083.13.119.19.094.165.295.626.757.827-.237.142-.403.344-.545.521-.13.118-.319.248-.437.177-.047-.035-.06-.07-.13-.13-.048-.035-.107-.047-.142-.035-.013 0-.048.012-.083.023-.071-.035-.201.012-.237.083.048-.012.095-.023.166.024v.083c-.012.059.035.118.272.094.012 0 .035.012.024.024-.024.035-.059.06-.118.047-.107-.035-.166-.118-.237-.023 0 .011-.024.035-.047.059h-.024c-.095.035-.19.213-.083.296 0-.036.012-.107.07-.142.025.023.048.047.048.047.071.106.154.166.308-.071.012-.036.024-.012.024 0-.012.106-.118.272.024.296.012 0 .036.011.071.011v.024c.036.13.201.166.272.13-.047-.023-.118-.059-.154-.154.036 0 .071-.011.071-.011.083-.083-.012-.201.024-.26.012-.012.025-.012.036 0 .024.047.106.153.224.082.071-.035.095-.094.107-.154.154-.059.296-.106.414-.07-.024-.083.071-.202.248-.249.166-.047.237.012.296.06.012-.072.083-.19.178-.297-.024.675.887.663 1.1 1.053-.272-.106-.58-.165-.745-.13-.225.036-.615.249-.663.509-.047.2.166.568.39.721-.271.048-.354-.047-.59.024h-.025c-.213.024-.237-.343-.485-.248-.012 0-.06.023-.071.047-.095 0-.237.106-.201.213.024-.024.07-.083.154-.095 0 .024-.012.06-.012.06 0 .035.012.07.094.07.06 0 .071-.011.095-.011.024 0 .035.011.035.023 0 .095-.308-.059-.248.201 0 .012.024.06.047.083-.012.071.047.154.19.118-.036-.023-.083-.059-.072-.106.025.012.06.012.06.012.012 0 .035-.012.035-.048 0 0 0-.011.012-.011.024.011.024.023.024.023 0 .024-.012.036-.012.06 0 .011.012.07.024.082-.012.095.13.19.26.095-.035 0-.118-.024-.13-.071.024-.012.06-.012.06-.024.024-.012.035-.047.035-.094 0-.024.012-.024.024-.024h.059c.035 0 .047.012.047.012.025.059.095.118.19.083.047-.012.07-.036.082-.071.036.023.071.047.107.082-.024-.106.047-.177.26-.047l.154-.118s.2.083.272 0c.13-.119.059-.13.059-.225-.083-.213-.142-.19-.178-.379-.07-.343.39-.532.663-.485.059.225.367.781.864.947.307.118.437-.225.532-.178.024 0 .047.036.059.071-.024.166.012.308-.024.39-.036.072-.213.013-.32 0-.07 0-.118.048-.13.048-.094.024-.201.107-.19.213a.36.36 0 0 1 .166-.083c0 .012.013.036.013.036.012.13.165.177.248.094 0-.011.047 0 .024.012-.07.06-.213.19-.094.237 0 0 .035.023.07.035-.012.083.048.154.119.178-.024-.048-.036-.071.012-.166h.06c.094.012.046-.154.141-.213.012 0 .024 0 .024.012-.035.095-.047.213.036.237 0 0 .035.011.07.011.025.071.12.13.237.071-.035-.011-.094-.035-.106-.082a.262.262 0 0 0 .059-.083c.059-.201-.107-.213-.107-.284 0-.107.19-.036.19-.237v-.035c.094-.048.189-.119.2-.19a.482.482 0 0 1-.26-.047m-1.22-4.306c-.047.071-.07.166-.047.237.036.106.119.2.308.2a.73.73 0 0 0-.249.439.693.693 0 0 0 .485-.107c-.035.178.025.284.119.343.047.036.118.048.201.036a11.106 11.106 0 0 1 1.514 4.164.72.72 0 0 0-.331-.071c0 .166.059.284.13.39h-2.52c-.012-.13-.082-.236-.177-.272-.107-.035-.225-.011-.343.13a.737.737 0 0 0-.201-.45.623.623 0 0 0-.201.45c-.119-.141-.249-.165-.355-.13a.303.303 0 0 0-.166.272h-2.165a.656.656 0 0 0 .118-.378.694.694 0 0 0-.39.118v-3.502c.142.012.272-.07.308-.165.035-.107.024-.237-.119-.355.142 0 .296-.06.45-.201a.797.797 0 0 0-.45-.201c.142-.119.154-.237.119-.344-.036-.094-.166-.177-.308-.177v-2.97c.095.06.201.107.331.119a.753.753 0 0 0-.07-.379c1.49.462 2.898 1.444 4.01 2.804m2.638 5.75c-.225-2.094-1.053-4.153-2.342-5.773a9.654 9.654 0 0 0-2.153-2.023c-.793-.521-1.645-.911-2.508-1.113l-.154-.047v9.086h7.169zm-2.225-5.868c1.385 1.739 2.225 3.928 2.402 6.152h-7.477V27.08c1.893.366 3.691 1.526 5.075 3.265m2.58 5.454a11.69 11.69 0 0 0-1.94-5.005.667.667 0 0 0 .283-.473.737.737 0 0 0-.52.142c-.071-.083-.13-.177-.202-.272-1.265-1.585-2.863-2.71-4.578-3.206-.024-.272-.272-.402-.414-.343a.28.28 0 0 0-.177.201c-.036-.012-.06-.012-.083-.012a.669.669 0 0 0-.402-.177.71.71 0 0 0 .13.461v.036c-.13 0-.201.059-.249.13-.082.13 0 .39.249.461v3.68a.658.658 0 0 0-.45.189.624.624 0 0 0 .45.2v3.976c-.237.06-.331.296-.272.426.047.083.13.154.272.165v.083a.65.65 0 0 0-.107.379c.142 0 .26-.047.355-.095h.107c0 .13.07.201.154.249.13.059.366-.024.425-.249h2.662c0 .142.06.308.201.45a.643.643 0 0 0 .202-.45h3.016c.06.26.32.355.45.284.094-.047.154-.142.154-.284h.059c.106.06.248.107.414.107a.789.789 0 0 0-.119-.355v-.107c.142 0 .213-.07.249-.165.07-.142-.048-.39-.32-.426m-49.462-2.816c-.012 0-.012-.012 0-.012v.012m372.846 126.94c-.19-3.999-3.218-7.217-7.37-7.217-4.402 0-7.028 3.313-7.324 7.217zm4.057 7.122c-1.135 5.643-5.193 8.707-10.93 8.707-8.164 0-12.02-5.631-12.269-13.451 0-7.666 5.04-13.31 12.02-13.31 9.05 0 11.818 8.46 11.57 14.647h-19.142c-.142 4.448 2.378 8.411 7.962 8.411 3.466 0 5.892-1.692 6.637-5.004zm-30.013-9.251c-.65-3.218-2.875-5.088-6.341-5.088-6.081 0-7.962 4.792-7.962 9.985 0 4.709 2.13 9.358 7.477 9.358 4.046 0 6.47-2.378 7.015-6.235h4.306c-.934 6.235-4.85 9.938-11.274 9.938-7.82 0-11.972-5.442-11.972-13.06 0-7.667 3.951-13.7 12.067-13.7 5.785 0 10.434 2.72 11.026 8.802zm-43.713-8.21h3.963v4.057h.094c1.787-3.17 4.65-4.65 8.317-4.65 6.72 0 8.802 3.857 8.802 9.347v16.822h-4.212v-17.307c0-3.124-1.975-5.147-5.193-5.147-5.087 0-7.56 3.408-7.56 8.01v14.444h-4.212zm-7.915 10.339c-.19-3.999-3.206-7.217-7.37-7.217-4.401 0-7.027 3.313-7.323 7.217zm4.058 7.122c-1.136 5.643-5.194 8.707-10.931 8.707-8.163 0-12.02-5.631-12.268-13.451 0-7.666 5.051-13.31 12.02-13.31 9.061 0 11.83 8.46 11.581 14.647H303.26c-.142 4.448 2.378 8.411 7.973 8.411 3.467 0 5.88-1.692 6.625-5.004zm-31.291-17.462h4.211v25.577h-4.211zm4.211-4.602h-4.2v-5.146h4.2zm-12.47 12.812c-.638-3.217-2.862-5.087-6.328-5.087-6.093 0-7.962 4.792-7.962 9.985 0 4.709 2.117 9.358 7.465 9.358 4.058 0 6.483-2.378 7.027-6.235h4.306c-.946 6.235-4.85 9.938-11.286 9.938-7.82 0-11.972-5.442-11.972-13.06 0-7.667 3.963-13.7 12.079-13.7 5.785 0 10.434 2.72 11.026 8.801zm-27.268-7.618c-.544-5.04-3.904-7.217-8.755-7.217-3.963 0-7.914 1.432-7.914 6.034 0 4.353 5.643 4.992 11.333 6.282 5.632 1.29 11.275 3.265 11.275 10.186 0 7.524-7.37 10.54-13.806 10.54-7.915 0-14.587-3.856-14.587-12.469h4.448c0 5.94 4.945 8.518 10.293 8.518 4.258 0 8.955-1.337 8.955-6.436 0-4.85-5.643-5.69-11.286-6.932-5.631-1.23-11.322-2.863-11.322-9.346 0-7.17 6.377-10.34 12.813-10.34 7.216 0 12.705 3.419 13.001 11.18zm-50.504-.592h3.951v5.395h.095c2.035-4.105 4.85-6.14 9.405-5.986v4.448c-6.779 0-9.251 3.868-9.251 10.34v11.38h-4.2zm-16.137 22.466c4.401 0 7.962-3.466 7.962-9.653 0-6.235-3.56-9.69-7.962-9.69-4.4 0-7.961 3.455-7.961 9.69 0 6.187 3.56 9.653 7.961 9.653m0-23.057c8.116 0 12.422 5.891 12.422 13.404 0 7.476-4.306 13.356-12.422 13.356-8.115 0-12.421-5.88-12.421-13.356 0-7.513 4.306-13.404 12.421-13.404m-22.312 4.306h-4.306v-3.715h4.306v-3.81c0-4.152 2.473-6.328 7.075-6.328.78 0 1.928.142 2.72.39v3.667c-.744-.248-1.632-.354-2.377-.354-2.035 0-3.218.65-3.218 2.874v3.561h4.945v3.715h-4.945v21.862h-4.2zm-23.305 6.625c-.202-3.999-3.218-7.217-7.37-7.217-4.402 0-7.028 3.313-7.324 7.217zm4.057 7.122c-1.135 5.643-5.193 8.707-10.93 8.707-8.164 0-12.02-5.631-12.269-13.451 0-7.666 5.04-13.31 12.02-13.31 9.05 0 11.818 8.46 11.57 14.647H128.24c-.142 4.448 2.378 8.411 7.962 8.411 3.466 0 5.892-1.692 6.637-5.004zm-30.013-9.252c-.651-3.217-2.875-5.087-6.341-5.087-6.081 0-7.962 4.792-7.962 9.985 0 4.709 2.13 9.358 7.477 9.358 4.046 0 6.47-2.378 7.015-6.235h4.306c-.934 6.235-4.85 9.938-11.274 9.938-7.82 0-11.972-5.442-11.972-13.06 0-7.667 3.95-13.7 12.067-13.7 5.785 0 10.434 2.72 11.025 8.801zm-26.914-8.21h4.2v25.577h-4.2zm4.2-4.602h-4.2v-5.146h4.2zm-16.41 8.317H73.55v-3.715h4.307v-3.81c0-4.152 2.472-6.328 7.074-6.328.793 0 1.929.142 2.721.39v3.667c-.745-.248-1.632-.354-2.378-.354-2.023 0-3.218.65-3.218 2.874v3.561h4.946v3.715h-4.946v21.862h-4.2zm-14.858 0h-4.295v-3.715h4.295v-3.81c0-4.152 2.484-6.328 7.074-6.328.793 0 1.929.142 2.721.39v3.667c-.733-.248-1.632-.354-2.366-.354-2.035 0-3.218.65-3.218 2.874v3.561h4.945v3.715h-4.945v21.862h-4.211zm-23.152 18.751c8.6 0 12.22-7.43 12.22-14.551 0-7.122-3.62-14.54-12.22-14.54-8.613 0-12.221 7.418-12.221 14.54 0 7.122 3.608 14.551 12.22 14.551m0-33.054c11.228 0 16.918 8.908 16.918 18.503 0 9.594-5.69 18.502-16.917 18.502-11.24 0-16.93-8.908-16.93-18.502 0-9.595 5.69-18.503 16.93-18.503M275.99 97.612h5.099v3.715h-5.1v15.876c0 1.929.545 2.284 3.171 2.284h1.929v3.703h-3.218c-4.354 0-6.081-.888-6.081-5.584v-16.279h-4.354v-3.715h4.354v-7.666h4.2zm-31.966 0h3.951v4.058h.107c1.775-3.17 4.65-4.65 8.305-4.65 6.731 0 8.802 3.858 8.802 9.347v16.823h-4.2v-17.308c0-3.123-1.976-5.146-5.194-5.146-5.099 0-7.571 3.407-7.571 8.009v14.445h-4.2zm-7.914 10.34c-.202-3.999-3.218-7.216-7.37-7.216-4.402 0-7.028 3.312-7.324 7.216zm4.057 7.122c-1.135 5.643-5.193 8.707-10.93 8.707-8.164 0-12.02-5.631-12.269-13.45 0-7.667 5.04-13.31 12.02-13.31 9.05 0 11.818 8.459 11.57 14.646h-19.142c-.142 4.448 2.378 8.411 7.962 8.411 3.466 0 5.892-1.691 6.637-5.004zM177.35 97.612h3.963v3.762h.095c1.88-2.874 4.744-4.353 8.257-4.353 3.124 0 5.987 1.242 7.028 4.353 1.739-2.72 4.744-4.353 8.009-4.353 5.099 0 8.518 2.13 8.518 7.418v18.75h-4.212v-16.763c0-3.17-.84-5.69-4.945-5.69-4.058 0-6.672 2.567-6.672 6.53v15.924h-4.212v-16.764c0-3.324-1.041-5.69-4.791-5.69-5.005 0-6.826 4.602-6.826 6.53v15.924h-4.212zm-26.251 0h3.95v4.058h.107c1.775-3.17 4.65-4.65 8.305-4.65 6.732 0 8.802 3.858 8.802 9.347v16.823h-4.2v-17.308c0-3.123-1.975-5.146-5.193-5.146-5.099 0-7.572 3.407-7.572 8.009v14.445h-4.2zm-15.782 0h3.951v5.395h.107c2.023-4.105 4.838-6.14 9.393-5.986v4.448c-6.779 0-9.251 3.869-9.251 10.34v11.38h-4.2zm-7.844 10.34c-.2-3.999-3.218-7.216-7.37-7.216-4.401 0-7.027 3.312-7.323 7.216zm4.058 7.122c-1.136 5.643-5.193 8.707-10.931 8.707-8.163 0-12.02-5.631-12.268-13.45 0-7.667 5.04-13.31 12.02-13.31 9.05 0 11.818 8.459 11.57 14.646h-19.142c-.142 4.448 2.378 8.411 7.962 8.411 3.466 0 5.891-1.691 6.637-5.004zM98.69 123.19h-4.496l-9.5-25.578h4.697l7.17 21.33h.106l6.968-21.33h4.401zm-26.737-3.112c4.413 0 7.974-3.466 7.974-9.653 0-6.223-3.561-9.69-7.974-9.69-4.4 0-7.962 3.467-7.962 9.69 0 6.187 3.561 9.653 7.962 9.653m0-23.057c8.116 0 12.422 5.891 12.422 13.404 0 7.477-4.306 13.356-12.422 13.356-8.103 0-12.41-5.88-12.41-13.356 0-7.513 4.307-13.404 12.41-13.404M51.32 118.789c-2.72 3.715-7.18 5.24-11.333 5.24-10.541 0-16.823-8.6-16.823-17.804 0-10.293 5.643-19.2 16.823-19.2 7.725 0 13.853 3.466 15.19 11.723H50.48c-.946-5.335-5.252-7.76-10.493-7.76-8.554 0-12.126 7.417-12.126 14.988 0 7.37 4.258 14.102 12.126 14.102 7.275 0 11.629-5.099 11.333-11.534H40.034v-3.952H55.52v18.598h-2.97zm0 0"/>
  <path d="M0 175.149h4.152V0H0Zm0 0" fill="#0054b8"/>
</svg>
