<svg viewBox="0 0 120 80" xmlns="http://www.w3.org/2000/svg">
  <defs>
    <linearGradient id="nnGradient" x1="0%" y1="0%" x2="100%" y2="100%">
      <stop offset="0%" style="stop-color:#667eea;stop-opacity:1" />
      <stop offset="100%" style="stop-color:#764ba2;stop-opacity:1" />
    </linearGradient>
  </defs>

  <!-- Background -->
  <rect width="120" height="80" fill="url(#nnGradient)"/>

  <!-- Input layer -->
  <circle cx="20" cy="20" r="4" fill="rgba(255,255,255,0.9)"/>
  <circle cx="20" cy="35" r="4" fill="rgba(255,255,255,0.9)"/>
  <circle cx="20" cy="50" r="4" fill="rgba(255,255,255,0.9)"/>
  <circle cx="20" cy="65" r="4" fill="rgba(255,255,255,0.9)"/>

  <!-- Hidden layer 1 -->
  <circle cx="50" cy="15" r="4" fill="rgba(52,152,219,0.9)"/>
  <circle cx="50" cy="30" r="4" fill="rgba(52,152,219,0.9)"/>
  <circle cx="50" cy="45" r="4" fill="rgba(52,152,219,0.9)"/>
  <circle cx="50" cy="60" r="4" fill="rgba(52,152,219,0.9)"/>

  <!-- Hidden layer 2 -->
  <circle cx="75" cy="25" r="4" fill="rgba(46,204,113,0.9)"/>
  <circle cx="75" cy="40" r="4" fill="rgba(46,204,113,0.9)"/>
  <circle cx="75" cy="55" r="4" fill="rgba(46,204,113,0.9)"/>

  <!-- Output layer -->
  <circle cx="100" cy="35" r="4" fill="rgba(231,76,60,0.9)"/>
  <circle cx="100" cy="50" r="4" fill="rgba(231,76,60,0.9)"/>

  <!-- Connections (sample) -->
  <line x1="24" y1="20" x2="46" y2="15" stroke="rgba(255,255,255,0.4)" stroke-width="1"/>
  <line x1="24" y1="35" x2="46" y2="30" stroke="rgba(255,255,255,0.6)" stroke-width="1"/>
  <line x1="24" y1="50" x2="46" y2="45" stroke="rgba(255,255,255,0.4)" stroke-width="1"/>

  <line x1="54" y1="15" x2="71" y2="25" stroke="rgba(255,255,255,0.5)" stroke-width="1"/>
  <line x1="54" y1="30" x2="71" y2="40" stroke="rgba(255,255,255,0.7)" stroke-width="1"/>
  <line x1="54" y1="45" x2="71" y2="55" stroke="rgba(255,255,255,0.4)" stroke-width="1"/>

  <line x1="79" y1="25" x2="96" y2="35" stroke="rgba(255,255,255,0.6)" stroke-width="1"/>
  <line x1="79" y1="40" x2="96" y2="50" stroke="rgba(255,255,255,0.5)" stroke-width="1"/>

  <!-- Layer labels -->
</svg>